<svg xmlns="http://www.w3.org/2000/svg" width="11" height="9" viewBox="0 0 11 9" fill="none"><path d="M9.75195 0.751953C9.87044 0.642578 10.0072 0.587891 10.1621 0.587891C10.3262 0.587891 10.4629 0.642578 10.5723 0.751953C10.6908 0.870443 10.75 1.01172 10.75 1.17578C10.75 1.33073 10.6908 1.46289 10.5723 1.57227L4.16016 7.99805C4.05078 8.10742 3.91406 8.16211 3.75 8.16211C3.58594 8.16211 3.44922 8.10742 3.33984 7.99805L0.427734 5.07227C0.309245 4.96289 0.25 4.83073 0.25 4.67578C0.25 4.51172 0.309245 4.37044 0.427734 4.25195C0.537109 4.14258 0.669271 4.08789 0.824219 4.08789C0.988281 4.08789 1.12956 4.14258 1.24805 4.25195L3.75 6.75391L9.75195 0.751953Z" fill="currentColor"></path></svg>