<svg xmlns="http://www.w3.org/2000/svg" width="100" height="32" viewBox="0 0 100 32"><path fill="none" stroke-linejoin="round" stroke-linecap="round" stroke-miterlimit="10" stroke-width="6.25" stroke="#000" d="M70.234 8.15v15.625c0 1.016-0.041 1.991-0.156 2.928-0.9 10.547-7.109 15.781-18.556 15.781h-1.563c-0.975 0-1.913 0.469-2.5 1.25l-4.688 6.25c-2.069 2.772-5.428 2.772-7.5 0l-4.688-6.25c-0.506-0.663-1.641-1.25-2.5-1.25h-1.563c-12.459 0-18.709-3.087-18.709-18.712v-15.625c0-11.444 5.275-17.656 15.781-18.553 0.938-0.116 1.916-0.156 2.931-0.156h25c12.459 0 18.709 6.25 18.709 18.712z"></path><path fill="none" stroke-linejoin="round" stroke-linecap="round" stroke-miterlimit="10" stroke-width="6.25" stroke="#000" d="M85.859-7.475v15.625c0 11.484-5.275 17.656-15.781 18.553 0.116-0.938 0.156-1.916 0.156-2.931v-15.625c0-12.459-6.25-18.709-18.712-18.709h-25c-1.016 0-1.991 0.041-2.928 0.156 0.897-10.506 7.109-15.781 18.553-15.781h25c12.463 0 18.713 6.25 18.713 18.712z"></path><path fill="none" stroke-linejoin="round" stroke-linecap="round" stroke-miterlimit="4" stroke-width="7.8125" stroke="#000" d="M52.719 17.759h0.031M39.044 17.759h0.038M25.375 17.759h0.031"></path></svg>