<svg xmlns="http://www.w3.org/2000/svg" fill="none" viewBox="0 0 65 65" height="65" width="65"><circle fill="white" r="32.5" cy="32.5" cx="32.5"></circle><mask height="47" width="24" y="9" x="16" maskUnits="userSpaceOnUse" style="mask-type:luminance" id="mask0_22042_33270"><path fill="white" d="M39.3164 9.68256H16.5V55.3174H39.3164V9.68256Z"></path></mask><g mask="url(#mask0_22042_33270)"><path fill="black" d="M37.9707 40.0199C37.9707 41.5286 37.7283 42.9014 37.2446 44.1395C36.762 45.3786 36.0751 46.4357 35.1838 47.3112C34.2936 48.1862 33.2301 48.8656 31.9926 49.3482C30.7546 49.8319 29.3808 50.0743 27.8711 50.0743C26.5113 50.0743 25.213 49.8623 23.9756 49.4395C22.7376 49.0161 21.6507 48.4047 20.7149 47.6047C19.7785 46.8047 19.0312 45.8308 18.4736 44.6829C17.9155 43.5362 17.6367 42.2384 17.6367 40.7894C17.6367 39.4014 17.878 38.209 18.3606 37.2134C18.8432 36.2166 19.4997 35.3932 20.3301 34.7438C21.1605 34.0949 22.1344 33.6112 23.2517 33.2938C24.369 32.9764 25.5614 32.8177 26.8298 32.8177V33.0003C25.7429 33.0601 24.7386 33.3237 23.8169 33.7916C22.8963 34.2601 22.1115 34.8715 21.4626 35.6264C20.8132 36.3818 20.3073 37.2427 19.9453 38.209C19.5828 39.1742 19.4019 40.2003 19.4019 41.2873C19.4019 42.5248 19.6051 43.6492 20.0127 44.6612C20.4214 45.6726 20.9877 46.5405 21.7126 47.2656C22.4371 47.99 23.3126 48.5487 24.3386 48.9416C25.3647 49.334 26.4961 49.5308 27.7341 49.5308C30.1802 49.5308 32.0905 48.8134 33.4643 47.3786C34.8382 45.9438 35.5251 44.0036 35.5251 41.559C35.5251 40.2606 35.23 39.0759 34.6404 38.0047C34.0518 36.9324 33.3122 35.921 32.4209 34.9699C31.5307 34.0193 30.565 33.1063 29.5232 32.2307C28.4825 31.3541 27.5167 30.478 26.6255 29.6025C25.7342 28.7275 24.994 27.8215 24.406 26.8851C23.8174 25.9492 23.5234 24.9372 23.5234 23.8503C23.5234 23.0666 23.6669 22.3579 23.9538 21.7242C24.2408 21.0894 24.6326 20.5606 25.1299 20.1372C25.6282 19.7144 26.2092 19.3894 26.8733 19.1633C27.5385 18.9372 28.2482 18.8242 29.0036 18.8242C29.3047 18.8242 29.5993 18.8546 29.8862 18.9155C30.1732 18.9753 30.4519 19.0351 30.7231 19.0959L31.8557 19.4568C32.46 19.6383 33.0339 19.7285 33.5774 19.7285C34.0002 19.7285 34.3322 19.5628 34.573 19.2307L34.2556 24.4851C34.1349 23.8807 33.9235 23.2622 33.6208 22.6285C33.3192 21.9938 32.9344 21.4198 32.4665 20.9068C31.9997 20.3937 31.4715 19.9644 30.8818 19.6177C30.2933 19.2698 29.652 19.0959 28.958 19.0959C27.8406 19.0959 26.882 19.3981 26.082 20.0024C25.2821 20.6057 24.8821 21.5106 24.8821 22.7177C24.8821 23.6541 25.2065 24.5525 25.8559 25.4133C26.5048 26.2742 27.3124 27.1199 28.2776 27.9503C29.2438 28.7807 30.2933 29.6264 31.4253 30.4873C32.5584 31.347 33.6078 32.2601 34.573 33.2264C35.5392 34.1916 36.3473 35.2329 36.9968 36.3503C37.6457 37.4677 37.9707 38.6911 37.9707 40.0199Z"></path></g><mask height="29" width="21" y="22" x="28" maskUnits="userSpaceOnUse" style="mask-type:luminance" id="mask1_22042_33270"><path fill="white" d="M48.4994 22.2042H28.8828V50.0304H48.4994V22.2042Z"></path></mask><g mask="url(#mask1_22042_33270)"><path fill="black" d="M45.4253 40.3389L47.573 43.0628H45.0666L31.9106 26.3563V38.5498C31.9106 39.1922 31.9476 39.7748 32.0215 40.2976C32.0954 40.8194 32.1823 41.2688 32.2823 41.6454C32.3834 42.0226 32.4937 42.3118 32.6128 42.5128C32.7329 42.7145 32.8481 42.815 32.9584 42.815V43.0628H30.6172V42.815C30.727 42.815 30.8416 42.7145 30.9607 42.5128C31.0808 42.3118 31.1911 42.0226 31.2911 41.6454C31.3922 41.2688 31.4791 40.8194 31.5519 40.2976C31.6258 39.7748 31.6628 39.1922 31.6628 38.5498V26.0541L29.8477 23.7411H32.3519L45.1775 40.0346V28.228C45.1775 27.5862 45.1405 27.0036 45.0666 26.4802C44.9938 25.9574 44.9068 25.5123 44.8057 25.1454C44.7041 24.7775 44.5938 24.4927 44.4753 24.2911C44.3563 24.09 44.2416 23.9889 44.1318 23.9889V23.7411H46.4709V23.9889C46.3606 23.9889 46.2459 24.09 46.1274 24.2911C46.0084 24.4927 45.8981 24.7775 45.797 25.1454C45.6954 25.5123 45.6079 25.9574 45.534 26.4802C45.4611 27.0036 45.4253 27.5862 45.4253 28.228V40.3389Z"></path></g></svg>