<svg xmlns="http://www.w3.org/2000/svg" fill="none" viewBox="0 0 65 65" height="65" width="65"><circle fill="white" r="32.5" cy="32.5" cx="32.5"></circle><mask height="29" width="33" y="18" x="16" maskUnits="userSpaceOnUse" style="mask-type:luminance" id="mask0_22042_33244"><path fill="white" d="M48.5 18.5282H16.5V46.4718H48.5V18.5282Z"></path></mask><g mask="url(#mask0_22042_33244)"><mask height="29" width="33" y="18" x="16" maskUnits="userSpaceOnUse" style="mask-type:luminance" id="mask1_22042_33244"><path fill="white" d="M16.6523 18.5383H48.3501V46.3182H16.6523V18.5383Z"></path></mask><g mask="url(#mask1_22042_33244)"><path fill="black" d="M33.7932 31.5688C32.7703 31.5735 31.7509 31.759 30.7779 32.0923L27.265 23.1263L28.7803 18.5383C28.7803 18.5383 30.0174 21.9297 30.2967 22.6076L33.7932 31.5688ZM39.4329 46.0272L34.5244 33.4456C33.5027 33.3998 32.4446 33.5436 31.4763 33.9145L36.2016 46.0272H33.8079V46.3065H41.5479V46.0272H39.4329ZM39.0109 18.5383H30.6623L33.9346 26.8781L33.6846 18.8176H38.6523C39.4106 18.8176 40.4076 18.9374 41.3255 19.2965C41.4452 19.3763 41.5649 19.4561 41.8038 19.5759C43.9188 20.8124 44.9158 23.1269 44.9158 25.7601C44.9158 28.1539 44.1576 30.2684 42.4822 31.5847C42.4023 31.6246 42.3225 31.705 42.1236 31.8247C41.6846 32.0641 41.2457 32.1833 40.7668 32.1833C39.6324 32.2754 37.0708 32.32 34.0919 32.3358L34.0273 32.3417C33.0338 32.4338 32.052 32.6211 31.0948 32.9016C26.2674 34.4174 22.3971 37.7678 20.1236 42.3159C19.4851 44.0712 18.6471 46.026 17.5702 46.026H16.6523V46.3059H22.9158V46.026H21.559C20.2826 46.026 19.8038 44.59 20.0831 43.0741C20.4417 42.0371 22.2773 38.6457 25.3495 36.2126C27.3442 34.6164 29.4188 33.6991 31.1741 33.1404C32.1312 32.8728 33.1119 32.6973 34.1019 32.6169L34.1975 32.6093C37.8214 32.5753 41.1441 32.4726 42.5614 32.3429C42.5614 32.3429 42.8407 32.303 43.0397 32.2232C46.2322 31.026 48.3466 28.5923 48.3466 25.6398C48.3466 21.4902 44.7955 18.5383 39.0109 18.5383Z"></path></g><mask height="9" width="9" y="26" x="21" maskUnits="userSpaceOnUse" style="mask-type:luminance" id="mask2_22042_33244"><path fill="white" d="M21.1836 26.2173H29.6554V34.6891H21.1836V26.2173Z"></path></mask><g mask="url(#mask2_22042_33244)"><path fill="black" d="M29.6801 30.4667C25.4976 30.5013 25.4682 30.5312 25.433 34.7137C25.3954 30.5312 25.3661 30.5013 21.1836 30.4667C25.3661 30.4291 25.3954 30.3998 25.433 26.2173C25.4682 30.3998 25.4976 30.4291 29.6801 30.4667Z"></path></g></g></svg>