<svg xmlns="http://www.w3.org/2000/svg" fill="none" viewBox="0 0 65 65" height="65" width="65"><circle fill="white" r="32.5" cy="32.5" cx="32.5"></circle><mask height="25" width="35" y="20" x="15" maskUnits="userSpaceOnUse" style="mask-type:luminance" id="mask0_22042_33203"><path fill="white" d="M50 20.2434H15V44.7566H50V20.2434Z"></path></mask><g mask="url(#mask0_22042_33203)"><mask height="25" width="22" y="20" x="15" maskUnits="userSpaceOnUse" style="mask-type:luminance" id="mask1_22042_33203"><path fill="white" d="M15.0352 20.2523H36.9957V44.4428H15.0352V20.2523Z"></path></mask><g mask="url(#mask1_22042_33203)"><path fill="black" d="M21.8419 31.1887C20.8137 31.1237 19.9657 31.9706 20.0308 32.9978C20.0845 33.8447 20.7727 34.5319 21.6207 34.5852C22.6489 34.6502 23.4969 33.8038 23.4318 32.7766C23.3781 31.9297 22.6899 31.2425 21.8419 31.1887ZM36.9946 43.4048L36.8477 44.4335C36.3694 44.4335 35.9649 44.3967 35.4866 44.3598C32.8014 44.1765 31.3666 43.4785 29.7486 41.2009C28.3875 39.3273 27.0633 37.0128 25.8861 35.1392C25.5456 34.5949 25.2599 34.2559 24.8651 34.048C24.6275 33.9231 24.5609 33.6164 24.7294 33.4074C24.8093 33.3091 24.8861 33.2088 24.9598 33.1074C25.3095 32.6261 25.7919 32.2584 26.3403 32.0259C26.7054 31.8713 27.028 31.6747 27.3209 31.4289C28.7552 30.3633 29.3435 28.8942 29.3435 26.9105C29.3435 22.98 26.732 21.5467 23.8999 21.5467C22.8332 21.5467 15.8401 21.5278 15.0352 21.5042V20.2615H24.415C27.1002 20.2615 28.9021 20.5917 30.3 21.5098C31.808 22.4653 32.8014 24.1183 32.8014 26.359C32.8014 29.5184 30.7783 31.5026 28.0562 32.6783C28.7183 33.8166 30.3 36.278 31.4035 37.9309C32.7646 39.8783 33.4635 40.7969 34.3094 41.715C35.3028 42.7806 36.1487 43.1846 36.9946 43.4048Z"></path></g><mask height="25" width="18" y="20" x="32" maskUnits="userSpaceOnUse" style="mask-type:luminance" id="mask2_22042_33203"><path fill="white" d="M32.5703 20.2523H49.8983V44.4428H32.5703V20.2523Z"></path></mask><g mask="url(#mask2_22042_33203)"><path fill="#0B0605" d="M49.7021 36.9509C49.5214 36.3073 49.1747 35.6518 48.6719 35.0041C48.1296 34.3062 47.3861 33.5734 46.4624 32.8284C45.5146 32.0639 44.3082 31.2553 42.878 30.4263C41.2384 29.4734 39.9111 28.6346 38.9326 27.9326C37.8942 27.1891 37.1143 26.5086 36.549 25.8537C35.9289 25.1363 35.5238 24.4148 35.3451 23.7107C35.1818 23.0676 35.1255 22.3768 35.1772 21.6579C35.2074 21.239 35.3047 20.8289 35.4675 20.431C35.5075 20.3332 35.3779 20.2559 35.3113 20.3378C35.0113 20.7075 34.7491 21.1125 34.5269 21.5493C34.1029 22.3809 33.8515 23.3098 33.7793 24.3103C33.7204 25.1235 33.7496 25.8542 33.8653 26.4814C33.9667 27.0355 34.2145 27.5921 34.6021 28.1384C35.0261 28.7386 35.6503 29.3679 36.4583 30.01C37.3109 30.688 38.4692 31.4535 39.9009 32.2851L39.9122 32.2912C41.4222 33.1899 42.6767 33.9918 43.6394 34.6753C44.6656 35.404 45.4516 36.0784 46.0425 36.7369C46.6933 37.462 47.1347 38.2208 47.3544 38.9935C47.5607 39.7232 47.634 40.5251 47.5725 41.3776C47.5157 42.1616 47.3032 42.8949 46.9401 43.558C46.8049 43.8038 46.6523 44.0362 46.4829 44.2554C46.4086 44.3522 46.5248 44.4797 46.6273 44.4131C46.7394 44.3394 46.8505 44.2636 46.9591 44.1847C47.7696 43.5979 48.4553 42.8493 48.996 41.9593C49.527 41.0863 49.825 40.1139 49.9065 38.9863C49.9561 38.2992 49.8875 37.614 49.7021 36.9509ZM36.3605 44.1279C35.8679 43.8263 35.3969 43.4755 34.9519 43.0787C34.0461 42.2717 33.2452 41.2471 32.5703 40.0325L32.6579 43.9722C32.6661 43.9686 32.6743 43.9645 32.6825 43.9615C33.0266 43.8068 33.3486 43.7633 33.5821 43.7582C33.8894 43.7515 34.2232 43.7782 34.5745 43.8381C34.8858 43.8913 35.2432 43.9712 35.6365 44.0772C35.8633 44.1391 36.0876 44.197 36.3093 44.2513C36.3846 44.2697 36.4271 44.1683 36.3605 44.1279ZM46.8044 20.3035C47.3083 20.4571 47.6473 20.5324 47.912 20.5513C48.3846 20.5856 48.8076 20.5206 49.1747 20.3588L48.9382 23.6272C48.93 23.6068 48.9218 23.5868 48.9136 23.5663C48.4312 22.3896 47.8362 21.4095 47.1444 20.6522C47.0338 20.5314 46.9201 20.4151 46.8044 20.3035Z"></path></g></g></svg>