<svg xmlns="http://www.w3.org/2000/svg" fill="none" viewBox="0 0 65 65" height="65" width="65"><circle fill="white" r="32.5" cy="32.5" cx="32.5"></circle><mask height="33" width="29" y="16" x="18" maskUnits="userSpaceOnUse" style="mask-type:luminance" id="mask0_22042_33187"><path fill="white" d="M18.5 16.6152H46.5V48.3848H18.5V16.6152Z"></path></mask><g mask="url(#mask0_22042_33187)"><path fill="black" d="M23.3419 40.2114H18.5C19.7649 39.6451 20.6383 37.951 20.6383 35.69L20.6366 21.1178C20.6366 18.8573 19.7649 17.1827 18.5 16.6152H23.3108L29.0866 31.4217L35.3171 16.6268V16.6152H35.3221H36.2088H39.7175C38.4532 17.1821 37.5809 18.8651 37.5809 21.1244V23.8069C36.256 24.1134 35.3171 24.9018 35.3171 24.9018V18.7551L29.6873 32.2657C28.9255 32.6188 28.0338 33.5106 27.5124 34.3507L21.2036 18.7357V35.7077C21.2036 37.9682 22.0753 39.6439 23.3419 40.2109V40.2114ZM34.8257 29.8786C34.8257 28.0096 36.1489 25.3933 39.2239 25.3933C43.6571 25.3933 45.7093 32.4783 45.7093 32.4783V26.3566C44.0252 25.4627 41.958 24.7097 39.2061 24.7097C36.0173 24.7097 33.8734 27.2273 33.8734 30.3123C33.8734 38.9049 45.4617 36.6833 45.4617 41.9166C45.4617 43.8572 43.1846 47.3004 38.3988 47.3004C33.9395 47.3004 28.5679 44.1671 28.5679 38.8C28.5679 34.143 32.3631 32.4978 32.3631 32.4978L32.2798 32.1208C32.2798 32.1208 27.3541 34.0175 27.3541 40.0587C27.3541 45.1987 31.8562 48.4131 37.2066 48.4131C42.9541 48.4131 46.4867 44.6074 46.4867 41.0565C46.4867 33.7882 34.8251 35.8538 34.8251 29.8786H34.8257Z"></path></g></svg>