<svg xmlns="http://www.w3.org/2000/svg" width="30" height="30" viewBox="0 0 30 30" fill="none"><path d="M21.253 16.55v-4.575L9.391 5.125" stroke="#e14a5c" stroke-width="2" stroke-linecap="round" stroke-linejoin="round"></path><path d="m3.965 9.3 11.037 6.388 10.963-6.35M15.004 27.013V15.676" stroke="#111" stroke-width="2" stroke-linecap="round" stroke-linejoin="round"></path><path d="M12.413 3.1 5.738 6.813c-1.512.837-2.75 2.937-2.75 4.662v7.063c0 1.724 1.238 3.825 2.75 4.662l6.675 3.713c1.425.787 3.763.787 5.188 0l6.675-3.713c1.512-.837 2.75-2.937 2.75-4.662v-7.063c0-1.725-1.238-3.825-2.75-4.662L17.6 3.1c-1.438-.8-3.763-.8-5.188 0" stroke="#111" stroke-width="2" stroke-linecap="round" stroke-linejoin="round"></path></svg>