<svg xmlns="http://www.w3.org/2000/svg" viewBox="0 0 28 28" fill="none" width="32" height="30" style="fill: none;"><path d="M25.0039 20.963C25.0039 21.359 24.9158 21.766 24.7285 22.162C24.5412 22.558 24.2989 22.932 23.9794 23.284C23.4396 23.878 22.8447 24.307 22.1727 24.582C21.5117 24.857 20.7956 25 20.0244 25C18.9008 25 17.7 24.736 16.4331 24.197C15.1662 23.658 13.8993 22.932 12.6434 22.019C11.3765 21.095 10.1757 20.072 9.02995 18.939C7.89524 17.795 6.87071 16.596 5.95634 15.342C5.05298 14.088 4.32589 12.834 3.7971 11.591C3.2683 10.337 3.00391 9.138 3.00391 7.994C3.00391 7.246 3.1361 6.531 3.4005 5.871C3.6649 5.2 4.08353 4.584 4.6674 4.034C5.37246 3.341 6.14362 3 6.95884 3C7.2673 3 7.57577 3.066 7.85118 3.198C8.13761 3.33 8.39099 3.528 8.58929 3.814L11.1451 7.411C11.3434 7.686 11.4866 7.939 11.5858 8.181C11.6849 8.412 11.74 8.643 11.74 8.852C11.74 9.116 11.6629 9.38 11.5087 9.633C11.3655 9.886 11.1561 10.15 10.8917 10.414L10.0545 11.283C9.9333 11.404 9.87822 11.547 9.87822 11.723C9.87822 11.811 9.88924 11.888 9.91127 11.976C9.94432 12.064 9.97737 12.13 9.9994 12.196C10.1977 12.559 10.5392 13.032 11.0239 13.604C11.5197 14.176 12.0485 14.759 12.6213 15.342C13.2162 15.925 13.7891 16.464 14.373 16.959C14.9458 17.443 15.4195 17.773 15.7941 17.971C15.8492 17.993 15.9153 18.026 15.9924 18.059C16.0805 18.092 16.1687 18.103 16.2678 18.103C16.4551 18.103 16.5983 18.037 16.7195 17.916L17.5567 17.091C17.8322 16.816 18.0966 16.607 18.3499 16.475C18.6033 16.321 18.8567 16.244 19.1321 16.244C19.3414 16.244 19.5617 16.288 19.8041 16.387C20.0465 16.486 20.2999 16.629 20.5753 16.816L24.2217 19.401C24.5082 19.599 24.7065 19.83 24.8276 20.105C24.9378 20.38 25.0039 20.655 25.0039 20.963Z" stroke="currentColor" stroke-width="2" stroke-miterlimit="10"></path><path d="M21.0039 11C21.0039 10.3143 20.4668 9.26286 19.6668 8.40571C18.9353 7.61714 17.9639 7 17.0039 7" stroke="#D0473E" stroke-width="2" stroke-linecap="round" stroke-linejoin="round"></path><path d="M25.0039 11C25.0039 6.57714 21.4268 3 17.0039 3" stroke="#D0473E" stroke-width="2" stroke-linecap="round" stroke-linejoin="round"></path></svg>