<svg xmlns="http://www.w3.org/2000/svg" fill="none" viewBox="0 0 50 50" height="50" width="50"><mask height="50" width="50" y="0" x="0" maskUnits="userSpaceOnUse" style="mask-type:luminance" id="mask0_15704_33883"><path fill="white" d="M0 3.8147e-06H50V50H0V3.8147e-06Z"></path></mask><g mask="url(#mask0_15704_33883)"><path fill="#111111" d="M8.12891 45.8641C8.12891 48.1483 9.98058 50 12.2648 50H37.7394C40.0235 50 41.8753 48.1483 41.8753 45.8641V22.6292C41.8753 13.3103 34.3209 5.75595 25.0021 5.75595C15.6833 5.75595 8.12891 13.3103 8.12891 22.6292V45.8641ZM12.2648 48.0469C11.0593 48.0469 10.082 47.0696 10.082 45.8641V22.6292C10.082 14.3889 16.762 7.70908 25.0021 7.70908C33.2422 7.70908 39.9222 14.389 39.9222 22.6292V45.8641C39.9222 47.0696 38.9449 48.0469 37.7394 48.0469H12.2648Z" clip-rule="evenodd" fill-rule="evenodd"></path><path fill="#111111" d="M13.4023 23.6055C13.9417 23.6055 14.3789 23.1682 14.3789 22.6289C14.3789 16.7722 19.1453 12.0058 25.0021 12.0058C30.8588 12.0058 35.6252 16.7722 35.6252 22.6289C35.6252 23.1682 36.0624 23.6055 36.6018 23.6055C37.1411 23.6055 37.5783 23.1682 37.5783 22.6289C37.5783 15.6935 31.9375 10.0526 25.0021 10.0526C18.0666 10.0526 12.4258 15.6935 12.4258 22.6289C12.4258 23.1682 12.863 23.6055 13.4023 23.6055Z" clip-rule="evenodd" fill-rule="evenodd"></path><path fill="#111111" d="M39.9219 42.5566C39.9219 43.096 40.3591 43.5332 40.8984 43.5332H42.93C44.884 43.5332 46.4683 41.9492 46.4683 39.995V29.9525C46.4683 27.9983 44.8841 26.4142 42.93 26.4142H40.8984C40.3591 26.4142 39.9219 26.8514 39.9219 27.3907V42.5566ZM41.875 41.5801V28.3673H42.93C43.8054 28.3673 44.5151 29.0769 44.5151 29.9525V39.995C44.5151 40.8704 43.8054 41.5801 42.93 41.5801H41.875Z" clip-rule="evenodd" fill-rule="evenodd"></path><path fill="#111111" d="M3.53516 39.995C3.53516 41.9492 5.1194 43.5332 7.07344 43.5332H9.10498C9.64432 43.5332 10.0815 43.096 10.0815 42.5566V27.3907C10.0815 26.8514 9.64432 26.4142 9.10498 26.4142H7.07344C5.11935 26.4142 3.53516 27.9983 3.53516 29.9525V39.995ZM7.07344 41.5801C6.19798 41.5801 5.48828 40.8704 5.48828 39.995V29.9525C5.48828 29.0769 6.19803 28.3673 7.07344 28.3673H8.12842V41.5801H7.07344Z" clip-rule="evenodd" fill-rule="evenodd"></path><path fill="#111111" d="M20.5742 8.16699C21.1136 8.16699 21.5508 7.72977 21.5508 7.19043V5.41016C21.5508 3.49987 23.0971 1.95342 25.0018 1.95342C26.9064 1.95342 28.4527 3.49987 28.4527 5.41016V7.19043C28.4527 7.72977 28.89 8.16699 29.4293 8.16699C29.9686 8.16699 30.4059 7.72977 30.4059 7.19043V5.41016C30.4059 2.42357 27.9875 0.000292778 25.0018 0.000292778C22.016 0.000292778 19.5977 2.42357 19.5977 5.41016V7.19043C19.5977 7.72977 20.0349 8.16699 20.5742 8.16699Z" clip-rule="evenodd" fill-rule="evenodd"></path><path fill="#111111" d="M12.4258 44.2178C12.4258 44.7571 12.863 45.1943 13.4023 45.1943H36.6018C37.1411 45.1943 37.5783 44.7571 37.5783 44.2178V32.9185C37.5783 30.5226 35.6361 28.5803 33.2401 28.5803H16.7638C14.3679 28.5803 12.4258 30.5226 12.4258 32.9185V44.2178ZM14.3789 43.2412V32.9185C14.3789 31.6012 15.4467 30.5334 16.7638 30.5334H33.2401C34.5574 30.5334 35.6252 31.6012 35.6252 32.9185V43.2412H14.3789Z" clip-rule="evenodd" fill-rule="evenodd"></path></g></svg>