<svg xmlns="http://www.w3.org/2000/svg" fill="none" viewBox="0 0 40 50" height="50" width="40"><path fill="#111111" d="M32.1719 20.2907H30.5899C30.3309 20.2907 30.0825 20.1878 29.8993 20.0046C29.7162 19.8215 29.6133 19.5731 29.6133 19.3141C29.6133 19.0551 29.7162 18.8067 29.8993 18.6235C30.0825 18.4404 30.3309 18.3375 30.5899 18.3375H32.1719C32.3771 18.3427 32.5813 18.3067 32.7723 18.2318C32.9634 18.1568 33.1376 18.0444 33.2845 17.9011C33.4315 17.7578 33.5482 17.5866 33.628 17.3974C33.7077 17.2083 33.7488 17.0051 33.7488 16.7999C33.7488 16.5946 33.7077 16.3914 33.628 16.2023C33.5482 16.0132 33.4315 15.8419 33.2845 15.6986C33.1376 15.5554 32.9634 15.4429 32.7723 15.368C32.5813 15.293 32.3771 15.2571 32.1719 15.2622H30.5899C30.3309 15.2622 30.0825 15.1594 29.8993 14.9762C29.7162 14.7931 29.6133 14.5447 29.6133 14.2857C29.6133 14.0267 29.7162 13.7783 29.8993 13.5951C30.0825 13.412 30.3309 13.3091 30.5899 13.3091H32.1719C32.6353 13.3013 33.0955 13.3859 33.5258 13.5578C33.9561 13.7298 34.3479 13.9857 34.6783 14.3106C35.0087 14.6355 35.2711 15.023 35.4502 15.4503C35.6293 15.8777 35.7216 16.3365 35.7216 16.7999C35.7216 17.2633 35.6293 17.722 35.4502 18.1494C35.2711 18.5768 35.0087 18.9642 34.6783 19.2891C34.3479 19.6141 33.9561 19.8699 33.5258 20.0419C33.0955 20.2138 32.6353 20.2984 32.1719 20.2907Z"></path><path fill="#111111" d="M8.33494 50.0003C8.148 50.0003 7.96498 49.9467 7.80762 49.8458C7.65026 49.7448 7.52518 49.6009 7.44723 49.431C5.27336 44.6945 6.40619 41.8664 7.15425 39.9952L7.20699 39.8624C7.34468 39.5167 7.3564 39.0694 7.3564 38.5626V34.9024C7.3564 34.6434 7.45929 34.395 7.64244 34.2118C7.82558 34.0287 8.07398 33.9258 8.33299 33.9258C8.59199 33.9258 8.84039 34.0287 9.02353 34.2118C9.20668 34.395 9.30957 34.6434 9.30957 34.9024V38.5616C9.30957 39.2452 9.28711 39.9181 9.01659 40.5861L8.96874 40.7228C7.39547 44.6418 8.40916 46.845 9.22167 48.6155C9.29012 48.7643 9.32006 48.9279 9.30875 49.0912C9.29743 49.2546 9.24522 49.4125 9.15692 49.5504C9.06862 49.6883 8.94706 49.8017 8.80342 49.8804C8.65979 49.959 8.49869 50.0002 8.33494 50.0003Z"></path><path fill="#111111" d="M38.071 50.0004H1.9258C1.66679 50.0004 1.4184 49.8975 1.23525 49.7144C1.05211 49.5312 0.949219 49.2828 0.949219 49.0238V42.3684C0.949219 40.0559 1.6797 38.1252 3.12211 36.63C4.4405 35.2628 6.29991 34.3204 8.64956 33.8302L14.5745 32.588V29.3145C14.5745 29.0555 14.6774 28.8071 14.8605 28.6239C15.0437 28.4408 15.2921 28.3379 15.5511 28.3379C15.8101 28.3379 16.0585 28.4408 16.2416 28.6239C16.4248 28.8071 16.5276 29.0555 16.5276 29.3145V33.381C16.5275 33.6059 16.4496 33.8239 16.3073 33.9981C16.1649 34.1723 15.9668 34.292 15.7464 34.337L9.04899 35.7423C6.24424 36.3283 2.90238 37.9523 2.90238 42.3684V48.0473H37.0945V42.3684C37.0945 37.9533 33.7526 36.3273 30.9479 35.7423L24.2456 34.337C24.0262 34.2909 23.8295 34.1706 23.6883 33.9966C23.5471 33.8225 23.4701 33.6051 23.4702 33.381V29.3145C23.4702 29.0555 23.5731 28.8071 23.7562 28.6239C23.9393 28.4408 24.1877 28.3379 24.4467 28.3379C24.7058 28.3379 24.9541 28.4408 25.1373 28.6239C25.3204 28.8071 25.4233 29.0555 25.4233 29.3145V32.588L31.3482 33.8302C33.692 34.3185 35.5554 35.2628 36.8737 36.63C38.3162 38.1252 39.0476 40.0559 39.0476 42.3684V49.0238C39.0476 49.2828 38.9447 49.5312 38.7616 49.7144C38.5784 49.8975 38.33 50.0004 38.071 50.0004Z"></path><path fill="#111111" d="M6.38692 31.6324C6.33855 31.6322 6.29026 31.6286 6.24239 31.6217C6.03295 31.5906 5.83931 31.4922 5.69064 31.3414C5.54197 31.1906 5.44634 30.9956 5.41815 30.7858C5.28827 29.8189 5.13495 28.8326 4.98553 27.8814C4.38884 24.0552 3.77164 20.098 4.35661 15.6536C4.72869 12.8264 5.60371 10.2414 6.95725 7.97085C8.2227 5.81678 9.9587 3.97662 12.0355 2.58794C15.8783 0.0380812 20.5786 -0.656268 25.2662 0.63282C27.0563 1.12111 28.1959 1.98343 28.6637 3.1817C29.1901 4.54208 28.8141 6.20226 27.5143 8.25992C24.2525 13.4172 17.7202 20.0541 12.9505 24.9028C10.3245 27.565 7.61351 30.3219 7.27464 31.0621C7.19682 31.2322 7.0718 31.3764 6.91443 31.4775C6.75706 31.5786 6.57397 31.6324 6.38692 31.6324ZM20.6763 1.95316C17.9864 1.94062 15.3535 2.72751 13.1117 4.21394C9.37917 6.68958 6.9592 10.843 6.29024 15.9066C5.74238 20.0727 6.33712 23.8882 6.9133 27.5787C6.94716 27.7994 6.98166 28.0214 7.01682 28.2447C8.02856 27.1187 9.52663 25.5884 11.556 23.5278C16.2631 18.7425 22.7105 12.1995 25.859 7.21303C26.7789 5.75792 27.1178 4.60653 26.8356 3.88484C26.608 3.29889 25.9029 2.83403 24.7418 2.51762C23.4181 2.14782 22.0506 1.95795 20.6763 1.95316Z"></path><path fill="#111111" d="M33.468 26.7063H22.0821C21.823 26.7063 21.5746 26.6034 21.3915 26.4202C21.2084 26.2371 21.1055 25.9887 21.1055 25.7297C21.1055 25.4707 21.2084 25.2223 21.3915 25.0391C21.5746 24.856 21.823 24.7531 22.0821 24.7531H33.468C33.5326 24.7516 33.594 24.7253 33.6397 24.6797C33.6853 24.634 33.7116 24.5725 33.7131 24.508V16.7969C33.7131 16.5379 33.816 16.2895 33.9992 16.1063C34.1823 15.9232 34.4307 15.8203 34.6897 15.8203C34.9487 15.8203 35.1971 15.9232 35.3803 16.1063C35.5634 16.2895 35.6663 16.5379 35.6663 16.7969V24.5119C35.6648 25.0941 35.4325 25.6519 35.0205 26.0632C34.6085 26.4745 34.0502 26.7058 33.468 26.7063Z"></path><path fill="#111111" d="M31.6612 50.0003C31.4974 50.0002 31.3363 49.959 31.1927 49.8804C31.049 49.8017 30.9275 49.6883 30.8392 49.5504C30.7509 49.4125 30.6987 49.2546 30.6873 49.0912C30.676 48.9279 30.706 48.7643 30.7744 48.6155C32.6016 44.6418 31.7305 42.4689 31.0303 40.7218L30.9766 40.587C30.708 39.9142 30.6836 39.2198 30.6836 38.5626V34.9024C30.6836 34.6434 30.7865 34.395 30.9696 34.2118C31.1528 34.0287 31.4012 33.9258 31.6602 33.9258C31.9192 33.9258 32.1676 34.0287 32.3507 34.2118C32.5339 34.395 32.6368 34.6434 32.6368 34.9024V38.5616C32.6368 39.0499 32.6485 39.5109 32.7881 39.8624L32.8418 39.9943C33.5909 41.8664 34.7247 44.6945 32.5489 49.431C32.4709 49.6009 32.3458 49.7448 32.1885 49.8458C32.0311 49.9467 31.8481 50.0003 31.6612 50.0003Z"></path><path fill="#111111" d="M19.9979 31.2752C18.0566 31.2758 16.1465 30.7867 14.4444 29.8531C12.7423 28.9195 11.3032 27.5716 10.2604 25.9342C10.1911 25.8263 10.1437 25.7058 10.1209 25.5796C10.0982 25.4533 10.1005 25.3239 10.1278 25.1985C10.1551 25.0732 10.2069 24.9545 10.28 24.8491C10.3532 24.7438 10.4464 24.6539 10.5543 24.5846C10.6623 24.5153 10.7828 24.4679 10.909 24.4452C11.0352 24.4224 11.1647 24.4248 11.29 24.452C11.4154 24.4793 11.5341 24.5311 11.6394 24.6042C11.7448 24.6774 11.8347 24.7706 11.904 24.8785C13.0218 26.6323 14.6784 27.9761 16.625 28.708C18.5717 29.4399 20.7032 29.5205 22.6996 28.9376C24.6959 28.3548 26.4493 27.14 27.6963 25.4756C28.9433 23.8113 29.6167 21.7872 29.6153 19.7075V14.1274C29.6179 12.8384 29.3592 11.5623 28.8546 10.3763C28.35 9.19019 27.6101 8.11878 26.6797 7.22683C26.4954 7.04628 26.3901 6.80016 26.3867 6.54221C26.3833 6.28426 26.4821 6.03545 26.6615 5.85009C26.8409 5.66474 27.0864 5.5579 27.3443 5.55292C27.6022 5.54793 27.8516 5.6452 28.0381 5.82348C29.1571 6.89662 30.0469 8.18552 30.6537 9.61227C31.2605 11.039 31.5717 12.574 31.5684 14.1244V19.7075C31.5645 22.7748 30.3442 25.7152 28.175 27.8838C26.0059 30.0524 23.0651 31.2721 19.9979 31.2752Z"></path><path fill="#111111" d="M19.9963 43.9328C19.8123 43.9324 19.6322 43.88 19.4767 43.7817C19.3212 43.6834 19.1966 43.5432 19.1173 43.3772C18.7267 42.55 17.8429 41.9465 16.7638 41.7609C15.5548 41.5529 14.3672 41.8937 13.5889 42.6721C13.4523 42.8086 13.2783 42.9016 13.0889 42.9392C12.8995 42.9769 12.7032 42.9576 12.5248 42.8837C12.3463 42.8098 12.1938 42.6846 12.0865 42.5241C11.9792 42.3635 11.9219 42.1747 11.9219 41.9816V33.9395C11.9219 33.6805 12.0248 33.4321 12.2079 33.2489C12.3911 33.0658 12.6395 32.9629 12.8985 32.9629C13.1575 32.9629 13.4059 33.0658 13.589 33.2489C13.7721 33.4321 13.875 33.6805 13.875 33.9395V40.1808C14.8948 39.7622 16.0126 39.6427 17.0978 39.8361C18.1938 40.013 19.2083 40.5247 20.0021 41.3009C20.7983 40.5243 21.8151 40.0126 22.9133 39.8361C23.9953 39.6448 25.1094 39.7643 26.1263 40.1808V33.9404C26.1263 33.6814 26.2291 33.433 26.4123 33.2499C26.5954 33.0668 26.8438 32.9639 27.1028 32.9639C27.3618 32.9639 27.6102 33.0668 27.7934 33.2499C27.9765 33.433 28.0794 33.6814 28.0794 33.9404V41.9826C28.0794 42.1758 28.022 42.3647 27.9146 42.5253C27.8071 42.686 27.6545 42.8111 27.4759 42.8849C27.2973 42.9587 27.1008 42.9779 26.9114 42.94C26.7219 42.9021 26.5479 42.8089 26.4114 42.6721C25.6301 41.8908 24.4504 41.5549 23.2424 41.7609C22.1604 41.9465 21.2785 42.551 20.883 43.3791C20.8028 43.5459 20.6769 43.6866 20.52 43.7846C20.363 43.8826 20.1813 43.9341 19.9963 43.9328Z"></path></svg>