<svg xmlns="http://www.w3.org/2000/svg" fill="none" viewBox="0 0 50 50" height="50" width="50"><mask height="50" width="50" y="0" x="0" maskUnits="userSpaceOnUse" style="mask-type:luminance" id="mask0_15704_33916"><path fill="white" d="M0 3.8147e-06H50V50H0V3.8147e-06Z"></path></mask><g mask="url(#mask0_15704_33916)"><path fill="#111111" d="M32.6172 38.6719C29.0614 38.6719 25.9766 35.781 25.9766 32.3242C25.9766 29.3048 28.3998 26.6984 31.3593 26.1039C31.8225 26.0109 32.1526 25.5997 32.1434 25.1273C32.1423 25.0739 32.138 25.0286 32.1343 24.9965C32.1326 24.982 32.1307 24.9678 32.1291 24.9563C32.1526 22.2794 34.3293 20.1172 37.0117 20.1172C37.608 20.1172 38.1773 20.2239 38.7041 20.4182C40.555 21.1016 41.8761 22.8746 41.8943 24.9563C41.8927 24.9678 41.8908 24.982 41.8891 24.9965C41.8854 25.0286 41.8811 25.0739 41.8801 25.1273C41.8708 25.5997 42.201 26.0109 42.6641 26.1039C45.6236 26.6984 48.0469 29.3048 48.0469 32.3242C48.0469 35.781 44.962 38.6719 41.4062 38.6719C39.9803 38.6719 38.6724 38.182 37.6008 37.3715C37.2523 37.1079 36.7711 37.1079 36.4226 37.3715C35.3511 38.182 34.0432 38.6719 32.6172 38.6719ZM24.0234 32.3242C24.0234 36.9573 28.0831 40.625 32.6172 40.625C34.244 40.625 35.7437 40.1411 37.0117 39.3377C38.2797 40.1411 39.7794 40.625 41.4062 40.625C45.9404 40.625 50 36.9573 50 32.3242C50 28.5295 47.2195 25.4036 43.8201 24.3821C43.5807 21.7087 41.8025 19.48 39.3802 18.5858L39.3799 18.5857C38.641 18.3132 37.8431 18.1641 37.0117 18.1641C33.4443 18.1641 30.5156 20.896 30.2033 24.3821C26.804 25.4036 24.0234 28.5295 24.0234 32.3242Z" clip-rule="evenodd" fill-rule="evenodd"></path><path fill="#111111" d="M8.59375 38.6719C5.03801 38.6719 1.95312 35.781 1.95312 32.3242C1.95312 29.3048 4.37637 26.6984 7.33588 26.1039C7.79904 26.0109 8.12919 25.5997 8.11993 25.1273C8.11888 25.0739 8.11458 25.0286 8.11085 24.9965C8.10915 24.982 8.10726 24.9678 8.10566 24.9563C8.12392 22.8746 9.44504 21.1016 11.2959 20.4182C11.8227 20.2239 12.392 20.1172 12.9883 20.1172C15.6707 20.1172 17.8474 22.2794 17.8709 24.9563C17.8693 24.9678 17.8674 24.982 17.8657 24.9965C17.862 25.0286 17.8577 25.0739 17.8566 25.1273C17.8474 25.5997 18.1775 26.0109 18.6407 26.1039C21.6002 26.6984 24.0234 29.3048 24.0234 32.3242C24.0234 35.781 20.9385 38.6719 17.3828 38.6719C15.9568 38.6719 14.6489 38.182 13.5774 37.3715C13.2289 37.1079 12.7477 37.1079 12.3992 37.3715C11.3276 38.182 10.0197 38.6719 8.59375 38.6719ZM0 32.3242C0 36.9573 4.05964 40.625 8.59375 40.625C10.2206 40.625 11.7203 40.1411 12.9883 39.3377C14.2563 40.1411 15.756 40.625 17.3828 40.625C21.9169 40.625 25.9766 36.9573 25.9766 32.3242C25.9766 28.5295 23.196 25.4036 19.7967 24.3821C19.4844 20.896 16.5557 18.1641 12.9883 18.1641C12.1569 18.1641 11.359 18.3132 10.6201 18.5857L10.6198 18.5858C8.19748 19.48 6.41932 21.7087 6.17988 24.3821C2.78054 25.4036 0 28.5295 0 32.3242Z" clip-rule="evenodd" fill-rule="evenodd"></path><path fill="#111111" d="M25.8819 16.0446C26.1138 15.5577 25.907 14.975 25.4201 14.7431L19.2677 11.8134C18.7808 11.5815 18.1981 11.7883 17.9662 12.2752C17.7343 12.7622 17.9411 13.3449 18.428 13.5768L24.5804 16.5065C25.0673 16.7384 25.65 16.5316 25.8819 16.0446Z" clip-rule="evenodd" fill-rule="evenodd"></path><path fill="#111111" d="M25 50C25.5393 50 25.9766 49.5628 25.9766 49.0234V9.76562C25.9766 9.22628 25.5393 8.78906 25 8.78906C24.4607 8.78906 24.0234 9.22628 24.0234 9.76562V49.0234C24.0234 49.5628 24.4607 50 25 50Z" clip-rule="evenodd" fill-rule="evenodd"></path><path fill="#111111" d="M12.9883 50C13.5276 50 13.9648 49.5628 13.9648 49.0234V27.9297C13.9648 27.3903 13.5276 26.9531 12.9883 26.9531C12.4489 26.9531 12.0117 27.3903 12.0117 27.9297V49.0234C12.0117 49.5628 12.4489 50 12.9883 50Z" clip-rule="evenodd" fill-rule="evenodd"></path><path fill="#111111" d="M13.862 34.2256C14.1032 33.7432 13.9076 33.1566 13.4252 32.9154L7.56585 29.9857C7.08345 29.7445 6.49686 29.94 6.25566 30.4224C6.01446 30.9048 6.20999 31.4914 6.69239 31.7326L12.5518 34.6623C13.0342 34.9035 13.6208 34.708 13.862 34.2256Z" clip-rule="evenodd" fill-rule="evenodd"></path><path fill="#111111" d="M37.0117 50C37.5511 50 37.9883 49.5628 37.9883 49.0234V25C37.9883 24.4607 37.5511 24.0234 37.0117 24.0234C36.4724 24.0234 36.0352 24.4607 36.0352 25V49.0234C36.0352 49.5628 36.4724 50 37.0117 50Z" clip-rule="evenodd" fill-rule="evenodd"></path><path fill="#111111" d="M36.1385 34.2256C36.3797 34.708 36.9663 34.9035 37.4487 34.6623L43.308 31.7326C43.7904 31.4914 43.986 30.9048 43.7448 30.4224C43.5036 29.94 42.917 29.7445 42.4346 29.9857L36.5752 32.9154C36.0928 33.1566 35.8973 33.7432 36.1385 34.2256Z" clip-rule="evenodd" fill-rule="evenodd"></path><path fill="#111111" d="M24.1185 18.9743C24.3504 19.4613 24.9331 19.668 25.4201 19.4362L31.5724 16.5065C32.0594 16.2746 32.2662 15.6919 32.0343 15.2049C31.8024 14.718 31.2197 14.5112 30.7327 14.7431L24.5804 17.6728C24.0934 17.9046 23.8866 18.4874 24.1185 18.9743Z" clip-rule="evenodd" fill-rule="evenodd"></path><path fill="#111111" d="M37.7023 31.5499C38.0836 31.1685 38.0836 30.5502 37.7023 30.1688L34.7726 27.2392C34.3912 26.8578 33.7729 26.8578 33.3915 27.2392C33.0101 27.6205 33.0101 28.2389 33.3915 28.6202L36.3212 31.5499C36.7026 31.9313 37.3209 31.9313 37.7023 31.5499Z" clip-rule="evenodd" fill-rule="evenodd"></path><path fill="#111111" d="M3.22266 49.0234C3.22266 49.5628 3.65988 50 4.19922 50H45.8008C46.3401 50 46.7773 49.5628 46.7773 49.0234C46.7773 48.4841 46.3401 48.0469 45.8008 48.0469H4.19922C3.65988 48.0469 3.22266 48.4841 3.22266 49.0234Z" clip-rule="evenodd" fill-rule="evenodd"></path><path fill="#111111" d="M12.2977 37.4093C12.6791 37.7907 13.2974 37.7907 13.6788 37.4093L16.6085 34.4796C16.9899 34.0982 16.9899 33.4799 16.6085 33.0985C16.2271 32.7172 15.6088 32.7172 15.2274 33.0985L12.2977 36.0282C11.9164 36.4096 11.9164 37.0279 12.2977 37.4093Z" clip-rule="evenodd" fill-rule="evenodd"></path><path fill="#111111" d="M37.5 10.6445C36.9611 10.6445 36.5234 10.2068 36.5234 9.66797C36.5234 9.1291 36.9611 8.69141 37.5 8.69141C38.0389 8.69141 38.4766 9.1291 38.4766 9.66797C38.4766 10.2068 38.0389 10.6445 37.5 10.6445Z"></path><path fill="#111111" d="M38.6114 20.3777C39.0952 20.6161 39.6807 20.4173 39.9191 19.9335C40.5602 18.6329 40.9192 17.1691 40.9192 15.6248C40.9192 14.8044 40.8175 14.0074 40.6258 13.2456C40.4941 12.7226 39.9634 12.4053 39.4404 12.5369C38.9174 12.6686 38.6001 13.1993 38.7317 13.7223C38.8845 14.3294 38.966 14.9664 38.966 15.6248C38.966 16.8637 38.6786 18.0326 38.1672 19.07C37.9288 19.5538 38.1277 20.1392 38.6114 20.3777Z" clip-rule="evenodd" fill-rule="evenodd"></path><path fill="#111111" d="M11.3898 20.3776C11.8736 20.1392 12.0724 19.5537 11.8339 19.0699C11.3226 18.0327 11.0352 16.8637 11.0352 15.6248C11.0352 11.722 13.9099 8.51039 17.6643 7.93581C18.0755 7.87289 18.4017 7.55645 18.477 7.1474C19.0132 4.23658 21.8467 1.95291 25 1.95291C28.1533 1.95291 30.9867 4.23657 31.523 7.14743C31.5984 7.5565 31.9246 7.87294 32.3358 7.93582C32.7408 7.99777 33.1353 8.09043 33.5172 8.21135C34.0314 8.37417 34.5802 8.08934 34.743 7.57516C34.9058 7.06098 34.621 6.51217 34.1068 6.34935C33.8394 6.26466 33.567 6.19108 33.2903 6.12916C32.297 2.56486 28.7927 -0.000219345 25 -0.000219345C21.2073 -0.000219345 17.7029 2.56486 16.7097 6.12921C12.3533 7.10426 9.08203 10.963 9.08203 15.6248C9.08203 17.169 9.44092 18.6329 10.0821 19.9335C10.3206 20.4173 10.9061 20.6161 11.3898 20.3776Z" clip-rule="evenodd" fill-rule="evenodd"></path></g></svg>