<svg xmlns="http://www.w3.org/2000/svg" width="32" height="30" viewBox="0 0 28 28" fill="none" style="fill: none;"><path d="M25.6654 11.6673V15.1673C25.6654 19.834 23.332 22.1673 18.6654 22.1673H18.082C17.7204 22.1673 17.3704 22.3423 17.1487 22.634L15.3987 24.9673C14.6287 25.994 13.3687 25.994 12.5987 24.9673L10.8487 22.634C10.662 22.3773 10.2304 22.1673 9.91537 22.1673H9.33203C4.66536 22.1673 2.33203 21.0006 2.33203 15.1673V9.33398C2.33203 4.66732 4.66536 2.33398 9.33203 2.33398H16.332" stroke="currentColor" stroke-width="2" stroke-miterlimit="10" stroke-linecap="round" stroke-linejoin="round"></path><path d="M22.7487 8.16732C24.3595 8.16732 25.6654 6.86148 25.6654 5.25065C25.6654 3.63982 24.3595 2.33398 22.7487 2.33398C21.1379 2.33398 19.832 3.63982 19.832 5.25065C19.832 6.86148 21.1379 8.16732 22.7487 8.16732Z" stroke="#D0473E" stroke-width="2" stroke-linecap="round" stroke-linejoin="round"></path><path d="M18.6629 12.8333H18.6733" stroke="currentColor" stroke-width="2.5" stroke-linecap="round" stroke-linejoin="round"></path><path d="M13.9949 12.8333H14.0054" stroke="currentColor" stroke-width="2.5" stroke-linecap="round" stroke-linejoin="round"></path><path d="M9.32693 12.8333H9.3374" stroke="currentColor" stroke-width="2.5" stroke-linecap="round" stroke-linejoin="round"></path></svg>