<svg xmlns="http://www.w3.org/2000/svg" width="30" height="32" viewBox="0 0 30 32"><path fill="none" stroke-linejoin="round" stroke-linecap="round" stroke-miterlimit="10" stroke-width="0.7385" stroke="#000" d="M9.157 18.865c0 0 1.129-1.686 4.113-2.267"></path><path fill="none" stroke-linejoin="round" stroke-linecap="round" stroke-miterlimit="10" stroke-width="0.7385" stroke="#000" d="M22.871 13.79c2.324 0.902 4.93 3.158 5.236 8.026 0.021 0.341-0.363 0.552-0.638 0.35-0.838-0.612-2.505-1.387-5.21-0.85-0.687 0.136-1.291 0.113-1.839-0.023"></path><path fill="none" stroke-linejoin="round" stroke-linecap="round" stroke-miterlimit="10" stroke-width="0.7385" stroke="#000" d="M16.563 18.425c-0.944-0.914-1.945-1.712-3.292-1.827 0 0 0.559 0.081 2.993-1.834 1.397-1.1 3.067-1.511 4.6-1.415"></path><path fill="none" stroke-linejoin="round" stroke-linecap="round" stroke-miterlimit="10" stroke-width="0.7385" stroke="#000" d="M0.893 11.728c0 0 0.575 1.3 1.853 2.083 0.212 0.13 0.487-0.005 0.51-0.253 0.059-0.619 0.229-1.709 0.724-2.691"></path><path fill="none" stroke-linejoin="round" stroke-linecap="round" stroke-miterlimit="10" stroke-width="0.7385" stroke="#000" d="M19.556 22.483c1.22-1.22 1.41-3.006 0.425-3.991s-2.771-0.794-3.991 0.425c-1.22 1.22-1.41 3.006-0.425 3.991s2.771 0.794 3.991-0.425z"></path><path fill="none" stroke-linejoin="round" stroke-linecap="round" stroke-miterlimit="10" stroke-width="0.7385" stroke="#000" d="M18.439 19.531c-0.411-0.198-0.939-0.107-1.441 0.395"></path><path fill="none" stroke-linejoin="round" stroke-linecap="round" stroke-miterlimit="10" stroke-width="0.7385" stroke="#000" d="M13.271 24.351c0.752-0.246 1.545-0.688 2.293-1.44"></path><path fill="none" stroke-linejoin="round" stroke-linecap="round" stroke-miterlimit="10" stroke-width="0.7385" stroke="#000" d="M5.815 28.766c-0.327 1.644-0.405 2.634-0.405 2.634"></path><path fill="none" stroke-linejoin="round" stroke-linecap="round" stroke-miterlimit="10" stroke-width="0.7385" stroke="#000" d="M20.872 4.776c-6.652 4.791-10.465 10.949-12.64 16.136"></path><path fill="none" stroke-linejoin="round" stroke-linecap="round" stroke-miterlimit="10" stroke-width="0.7385" stroke="#000" d="M13.138 12.345c0 0 1.744-2.839 7.058-3.049"></path><path fill="none" stroke-linejoin="round" stroke-linecap="round" stroke-miterlimit="10" stroke-width="0.7385" stroke="#000" d="M23.668 12.475c1.918 0 3.472-1.255 3.472-2.804s-1.555-2.804-3.472-2.804c-1.918 0-3.472 1.255-3.472 2.804s1.555 2.804 3.472 2.804z"></path><path fill="none" stroke-linejoin="round" stroke-linecap="round" stroke-miterlimit="10" stroke-width="0.7385" stroke="#000" d="M25.108 9.276c-0.167-0.478-0.655-0.822-1.443-0.822"></path><path fill="none" stroke-linejoin="round" stroke-linecap="round" stroke-miterlimit="10" stroke-width="0.7385" stroke="#000" d="M8.3 21.298c-0.257-0.64-0.748-1.123-1.393-1.406-0.933-0.409-1.956-0.297-2.809 0.424"></path><path fill="none" stroke-linejoin="round" stroke-linecap="round" stroke-miterlimit="10" stroke-width="0.7385" stroke="#000" d="M2.921 22.001c-0.882 2.067-0.21 3.635 1.196 4.251 0.521 0.228 1.070 0.294 1.601 0.183"></path><path fill="none" stroke-linejoin="round" stroke-linecap="round" stroke-miterlimit="10" stroke-width="0.7385" stroke="#000" d="M5.727 21.591c-0.505-0.039-1.016 0.269-1.333 0.991"></path><path fill="none" stroke-linejoin="round" stroke-linecap="round" stroke-miterlimit="10" stroke-width="0.7385" stroke="#000" d="M11.301 27.618c0 2.287-1.255 3.473-2.803 3.473s-2.804-1.186-2.804-3.473c0-1.797 0.775-2.913 1.858-3.31"></path><path fill="none" stroke-linejoin="round" stroke-linecap="round" stroke-miterlimit="10" stroke-width="0.7385" stroke="#000" d="M8.104 26.174c-0.478 0.167-0.822 0.655-0.822 1.443"></path><path fill="none" stroke-linejoin="round" stroke-linecap="round" stroke-miterlimit="10" stroke-width="0.7385" stroke="#000" d="M10.92 27.571c1.528-0.25 2.515-1.988 2.205-3.88s-1.8-3.224-3.328-2.973c-1.528 0.25-2.515 1.988-2.205 3.88s1.8 3.224 3.328 2.973z"></path><path fill="none" stroke-linejoin="round" stroke-linecap="round" stroke-miterlimit="10" stroke-width="0.7385" stroke="#000" d="M9.734 22.785c-0.445 0.242-0.706 0.779-0.578 1.557"></path><path fill="none" stroke-linejoin="round" stroke-linecap="round" stroke-miterlimit="10" stroke-width="0.7385" stroke="#000" d="M8.035 6.685c0.427-1.362 1.449-1.994 2.586-1.898 1.387 0.118 2.422 1.276 2.248 3.325-0.105 1.238-0.59 2.081-1.264 2.528"></path><path fill="none" stroke-linejoin="round" stroke-linecap="round" stroke-miterlimit="10" stroke-width="0.7385" stroke="#000" d="M10.114 6.575c-0.359 0.092-0.654 0.38-0.784 0.864"></path><path fill="none" stroke-linejoin="round" stroke-linecap="round" stroke-miterlimit="10" stroke-width="0.7385" stroke="#000" d="M2.634 7.219c-1.597 1.024-2.512 2.743-1.741 4.509 0 0 2.332-3.121 4.169 0.45 1.583 3.078 2.372 4.522 6.774 1.997 0 0 0.959-3.904-2.405-6.655-1.494-1.222-3.316-1.467-4.915-1.092"></path><path fill="none" stroke-linejoin="round" stroke-linecap="round" stroke-miterlimit="10" stroke-width="0.7385" stroke="#000" d="M3.837 8.607c0 0 5.432-0.801 8 5.568"></path><path fill="none" stroke-linejoin="round" stroke-linecap="round" stroke-miterlimit="10" stroke-width="0.7385" stroke="#000" d="M13.271 16.598c0 0 9.432-4.47 12.329 2.836"></path><path fill="none" stroke-linejoin="round" stroke-linecap="round" stroke-miterlimit="10" stroke-width="0.7385" stroke="#000" d="M20.872 4.776c0 0-0.302-3.746 2.744-4.043 2.243-0.219 4.386-0.115 5.36-0.046 0.273 0.020 0.438 0.309 0.318 0.555-0.788 1.611-3.597 6.327-8.422 3.533z"></path><path fill="none" stroke-linejoin="round" stroke-linecap="round" stroke-miterlimit="10" stroke-width="0.7385" stroke="#000" d="M17.596 7.439c0 0 1.853-1.465 1.273-3.686"></path><path fill="none" stroke-linejoin="round" stroke-linecap="round" stroke-miterlimit="10" stroke-width="0.7385" stroke="#000" d="M20.869 4.778c0 0 1.711-1.663 5.007-2.652"></path><path fill="none" stroke-linejoin="round" stroke-linecap="round" stroke-miterlimit="10" stroke-width="0.7385" stroke="#000" d="M22.394 3.671c0 0 0.776 0.34 2.466 0.213"></path><path fill="none" stroke-linejoin="round" stroke-linecap="round" stroke-miterlimit="10" stroke-width="0.7385" stroke="#000" d="M21.457 15.539c0 0 0.31 2.095 1.405 3.453"></path><path fill="none" stroke-linejoin="round" stroke-linecap="round" stroke-miterlimit="10" stroke-width="0.7385" stroke="#000" d="M10.361 11.561c0 0-1.341 0.783-3.122 0.24"></path><path fill="none" stroke-linejoin="round" stroke-linecap="round" stroke-miterlimit="10" stroke-width="0.7385" stroke="#000" d="M8.024 9.526c0 0-0.893 0.43-2.512 0.43"></path></svg>