<svg xmlns="http://www.w3.org/2000/svg" width="40" height="40" viewBox="0 0 40 40" fill="none"><g clip-path="url(#a)" fill="currentColor"><path d="M20 40a19.87 19.87 0 0 1-14.142-5.858A19.87 19.87 0 0 1 0 20 19.87 19.87 0 0 1 5.858 5.858 19.87 19.87 0 0 1 20 0a19.87 19.87 0 0 1 14.142 5.858A19.87 19.87 0 0 1 40 20a19.87 19.87 0 0 1-5.858 14.142A19.87 19.87 0 0 1 20 40m0-37.5C10.35 2.5 2.5 10.35 2.5 20S10.35 37.5 20 37.5 37.5 29.65 37.5 20 29.65 2.5 20 2.5"></path><path d="M20 18.75a3.13 3.13 0 0 1-3.125-3.125A3.13 3.13 0 0 1 20 12.5a3.13 3.13 0 0 1 3.125 3.125 1.25 1.25 0 0 0 2.5 0 5.634 5.634 0 0 0-4.375-5.483V8.75a1.25 1.25 0 0 0-2.5 0v1.392a5.634 5.634 0 0 0-4.375 5.483A5.63 5.63 0 0 0 20 21.25a3.13 3.13 0 0 1 3.125 3.125A3.13 3.13 0 0 1 20 27.5a3.13 3.13 0 0 1-3.125-3.125 1.25 1.25 0 0 0-2.5 0 5.634 5.634 0 0 0 4.375 5.483v1.392a1.25 1.25 0 0 0 2.5 0v-1.392a5.634 5.634 0 0 0 4.375-5.483A5.63 5.63 0 0 0 20 18.75"></path></g><defs><clipPath id="a"><path fill="currentColor" d="M0 0h40v40H0z"></path></clipPath></defs></svg>