<svg xmlns="http://www.w3.org/2000/svg" width="40" height="40" viewBox="0 0 40 40" fill="none"><g clip-path="url(#a)" fill="currentColor"><path d="M39.96 19.261 38 13.36c-.508-1.535-1.916-2.526-3.586-2.526h-5.243l.191-1.563a2.33 2.33 0 0 0-.547-1.834 2.32 2.32 0 0 0-1.742-.77H6.877c-1.334 0-2.544 1.078-2.698 2.394l-.107.834a.833.833 0 0 0 .721.932.825.825 0 0 0 .933-.72l.107-.843c.058-.496.545-.93 1.044-.93h20.197c.2 0 .374.073.492.206a.66.66 0 0 1 .144.526L25.758 25H3.882a.823.823 0 0 0-1.545-.411.8.8 0 0 0-.101.309l-.311 2.506a2.34 2.34 0 0 0 .56 1.835 2.28 2.28 0 0 0 1.73.761h1.613c.013.828.286 1.6.824 2.206.643.727 1.558 1.128 2.575 1.128 1.906 0 3.64-1.471 4.03-3.334h14.439c.012.828.285 1.599.822 2.205.643.728 1.558 1.129 2.576 1.129 1.906 0 3.64-1.471 4.03-3.334h1.794c1.349 0 2.534-1.054 2.698-2.398l.64-5.22a7.1 7.1 0 0 0-.295-3.12zm-1.788-.095h-5.021l.395-3.232c.006-.042.075-.101.109-.101h3.411zM28.968 12.5h5.448c.954 0 1.72.53 2.004 1.385l.094.282h-2.86a1.8 1.8 0 0 0-1.76 1.565l-.41 3.333a1.58 1.58 0 0 0 .378 1.245c.295.332.725.523 1.18.523h5.562c.053.447.052.9-.002 1.347L38.256 25h-10.82zm-.916 15.834h-1.024l.204-1.667h2.179a4.3 4.3 0 0 0-1.36 1.667m-2.702 0H13.234a3.3 3.3 0 0 0-.717-1.372c-.099-.11-.214-.2-.324-.295h13.362zm-19.173 0H4.214a.63.63 0 0 1-.485-.202.67.67 0 0 1-.15-.53l.115-.935h3.82a4.2 4.2 0 0 0-1.338 1.667m5.496 1.148c-.145 1.185-1.266 2.185-2.447 2.185-.534 0-1.004-.2-1.327-.566-.328-.37-.472-.873-.406-1.416C7.64 28.5 8.76 27.5 9.942 27.5c.533 0 1.004.201 1.326.566.329.37.472.874.405 1.416m21.868 0c-.146 1.185-1.267 2.185-2.448 2.185-.533 0-1.004-.2-1.327-.566-.329-.37-.472-.873-.405-1.416.145-1.185 1.266-2.185 2.447-2.185.534 0 1.004.201 1.328.566.328.37.471.874.405 1.416m3.377-1.148h-1.816a3.3 3.3 0 0 0-.718-1.372c-.098-.11-.213-.2-.323-.295h3.991l-.09.732c-.06.498-.549.935-1.044.935"></path><path d="M7.838 21.667a.833.833 0 0 0-.834-.834H1.146a.833.833 0 1 0 0 1.667h5.858a.833.833 0 0 0 .834-.833m-4.12-5a.834.834 0 0 0 0 1.666H7.52a.834.834 0 0 0 0-1.666zm-1.593-2.5h6.733a.833.833 0 1 0 0-1.667H2.125a.833.833 0 1 0 0 1.667"></path></g><defs><clipPath id="a"><path fill="currentColor" d="M0 0h40v40H0z"></path></clipPath></defs></svg>