<svg width="25" height="25" fill="none" xmlns="http://www.w3.org/2000/svg">
        <path stroke="currentColor" stroke-linecap="round" stroke-linejoin="round" stroke-width="1.5" d="M12 14.501h1c1.1 0 2-.9 2-2v-10H6c-1.5 0-2.81.83-3.49 2.05"></path><path stroke="currentColor" stroke-linecap="round" stroke-linejoin="round" stroke-width="1.5" d="M2 17.501c0 1.66 1.34 3 3 3h1c0-1.1.9-2 2-2s2 .9 2 2h4c0-1.1.9-2 2-2s2 .9 2 2h1c1.66 0 3-1.34 3-3v-3h-3c-.55 0-1-.45-1-1v-3c0-.55.45-1 1-1h1.29l-1.71-2.99a2.016 2.016 0 0 0-1.74-1.01H15v7c0 1.1-.9 2-2 2h-1"></path><path stroke="currentColor" stroke-linecap="round" stroke-linejoin="round" stroke-width="1.5" d="M8 22.501a2 2 0 1 0 0-4 2 2 0 0 0 0 4ZM16 22.501a2 2 0 1 0 0-4 2 2 0 0 0 0 4ZM22 12.501v2h-3c-.55 0-1-.45-1-1v-3c0-.55.45-1 1-1h1.29l1.71 3ZM2 8.501h6M2 11.501h4M2 14.501h2"></path>
      </svg>