<svg xmlns="http://www.w3.org/2000/svg" width="32" height="30" viewBox="0 0 28 28" fill="none" style="fill: none;"><path d="M26.0039 12.2353V18.1176C26.0039 22.2353 23.6039 24 20.0039 24H8.00391C4.40391 24 2.00391 22.2353 2.00391 18.1176V9.88235C2.00391 5.76471 4.40391 4 8.00391 4H16.4039" stroke="currentColor" stroke-width="2" stroke-miterlimit="10" stroke-linecap="round" stroke-linejoin="round"></path><path d="M8 10L11.8834 13.2103C13.1613 14.2632 15.2581 14.2632 16.536 13.2103L18 12.0032" stroke="currentColor" stroke-width="2" stroke-miterlimit="10" stroke-linecap="round" stroke-linejoin="round"></path><path d="M23 9C24.6569 9 26 7.65685 26 6C26 4.34315 24.6569 3 23 3C21.3431 3 20 4.34315 20 6C20 7.65685 21.3431 9 23 9Z" stroke="#D0473E" stroke-width="2" stroke-miterlimit="10" stroke-linecap="round" stroke-linejoin="round"></path></svg>