<svg xmlns="http://www.w3.org/2000/svg" width="32" height="32" viewBox="0 0 32 32"><path fill="none" stroke-linejoin="round" stroke-linecap="round" stroke-miterlimit="4" stroke-width="1.6" stroke="#000" d="M11.691 18.663c-0.659-0.244-1.244-0.723-1.616-1.403-0.85-1.552-0.33-3.572 1.18-4.507l2.487-1.541c1.499-0.935 3.433-0.425 4.284 1.116 0.85 1.552 0.33 3.572-1.18 4.507l-0.33 0.234"></path><path fill="none" stroke-linejoin="round" stroke-linecap="round" stroke-miterlimit="4" stroke-width="1.6" stroke="#000" d="M20.377 13.284c0.659 0.244 1.244 0.723 1.616 1.403 0.85 1.552 0.33 3.572-1.18 4.507l-2.487 1.541c-1.499 0.935-3.433 0.425-4.284-1.116-0.85-1.552-0.33-3.572 1.18-4.507l0.33-0.234"></path><path fill="none" stroke-linejoin="round" stroke-linecap="round" stroke-miterlimit="4" stroke-width="1.6" stroke="#000" d="M16.001 29.333c7.364 0 13.333-5.97 13.333-13.333s-5.97-13.333-13.333-13.333c-7.364 0-13.333 5.97-13.333 13.333s5.97 13.333 13.333 13.333z"></path></svg>