<svg xmlns="http://www.w3.org/2000/svg" width="35" height="32" viewBox="0 0 35 32"><path d="M7.93 26.495c-3.729-3.007-5.868-7.496-5.868-12.318s2.139-9.311 5.868-12.318c0.445-0.359 0.519-1.016 0.164-1.466s-1.004-0.525-1.449-0.166c-4.223 3.405-6.645 8.489-6.645 13.95s2.422 10.545 6.645 13.95c0.445 0.359 1.094 0.285 1.449-0.166s0.282-1.107-0.164-1.466z"></path><path d="M28.555 0.228c-0.446-0.359-1.094-0.285-1.449 0.166s-0.282 1.107 0.164 1.466c3.729 3.007 5.868 7.496 5.868 12.318s-2.139 9.311-5.868 12.318c-0.445 0.359-0.519 1.016-0.164 1.466s1.004 0.525 1.449 0.166c4.223-3.405 6.645-8.49 6.645-13.95s-2.422-10.545-6.645-13.95z"></path><path d="M11.367 22.14c-2.418-1.946-3.804-4.848-3.804-7.962s1.387-6.017 3.804-7.962c0.446-0.359 0.52-1.015 0.165-1.466s-1.003-0.526-1.449-0.167c-2.912 2.344-4.583 5.842-4.583 9.596s1.67 7.252 4.583 9.596c0.446 0.359 1.095 0.284 1.449-0.167s0.281-1.107-0.165-1.466z"></path><path d="M25.117 4.582c-0.446-0.359-1.094-0.284-1.449 0.167s-0.281 1.107 0.165 1.466c2.418 1.946 3.804 4.848 3.804 7.962s-1.387 6.017-3.804 7.962c-0.446 0.359-0.52 1.015-0.165 1.466s1.004 0.526 1.449 0.167c2.912-2.344 4.583-5.842 4.583-9.596s-1.67-7.252-4.583-9.596z"></path><path d="M17.6 8.974c-2.843 0-5.156 2.34-5.156 5.217 0 2.52 1.774 4.628 4.125 5.112v11.653c0 0.576 0.462 1.043 1.031 1.043s1.031-0.467 1.031-1.043v-11.653c2.351-0.485 4.125-2.593 4.125-5.112 0-2.877-2.313-5.217-5.156-5.217zM17.6 17.322c-1.706 0-3.094-1.404-3.094-3.13s1.388-3.13 3.094-3.13 3.094 1.404 3.094 3.13c0 1.726-1.388 3.13-3.094 3.13z"></path></svg>