<svg xmlns="http://www.w3.org/2000/svg" width="32" height="32" viewBox="0 0 32 32"><path fill="none" stroke-linejoin="round" stroke-linecap="round" stroke-miterlimit="4" stroke-width="1.6" stroke="#000" d="M11.173 16l3.213 3.227 6.44-6.453"></path><path fill="none" stroke-linejoin="round" stroke-linecap="round" stroke-miterlimit="4" stroke-width="1.6" stroke="#000" d="M14.333 3.267c0.92-0.787 2.427-0.787 3.36 0l2.107 1.813c0.4 0.347 1.147 0.627 1.68 0.627h2.267c1.413 0 2.573 1.16 2.573 2.573v2.267c0 0.52 0.28 1.28 0.627 1.68l1.813 2.107c0.787 0.92 0.787 2.427 0 3.36l-1.813 2.107c-0.347 0.4-0.627 1.147-0.627 1.68v2.267c0 1.413-1.16 2.573-2.573 2.573h-2.267c-0.52 0-1.28 0.28-1.68 0.627l-2.107 1.813c-0.92 0.787-2.427 0.787-3.36 0l-2.107-1.813c-0.4-0.347-1.147-0.627-1.68-0.627h-2.307c-1.413 0-2.573-1.16-2.573-2.573v-2.28c0-0.52-0.28-1.267-0.613-1.667l-1.8-2.12c-0.773-0.92-0.773-2.413 0-3.333l1.8-2.12c0.333-0.4 0.613-1.147 0.613-1.667v-2.293c0-1.413 1.16-2.573 2.573-2.573h2.307c0.52 0 1.28-0.28 1.68-0.627l2.107-1.8z"></path></svg>