<svg xmlns="http://www.w3.org/2000/svg" width="32" height="32" viewBox="0 0 32 32"><path fill="none" stroke-linejoin="round" stroke-linecap="round" stroke-miterlimit="4" stroke-width="1.6" stroke="#000" d="M16.001 20.667c2.947 0 5.333-2.387 5.333-5.333v-7.333c0-2.947-2.387-5.333-5.333-5.333s-5.333 2.387-5.333 5.333v7.333c0 2.947 2.387 5.333 5.333 5.333z"></path><path fill="none" stroke-linejoin="round" stroke-linecap="round" stroke-miterlimit="4" stroke-width="1.6" stroke="#000" d="M5.8 12.867v2.267c0 5.627 4.573 10.2 10.2 10.2s10.2-4.573 10.2-10.2v-2.267"></path><path fill="none" stroke-linejoin="round" stroke-linecap="round" stroke-miterlimit="4" stroke-width="1.6" stroke="#000" d="M14.147 8.573c1.2-0.44 2.507-0.44 3.707 0"></path><path fill="none" stroke-linejoin="round" stroke-linecap="round" stroke-miterlimit="4" stroke-width="1.6" stroke="#000" d="M14.933 11.4c0.707-0.187 1.44-0.187 2.147 0"></path><path fill="none" stroke-linejoin="round" stroke-linecap="round" stroke-miterlimit="4" stroke-width="1.6" stroke="#000" d="M16 25.333v4"></path></svg>