<svg xmlns="http://www.w3.org/2000/svg" width="30" height="32" viewBox="0 0 30 32"><path d="M0 21.16c0 3.156 2.622 5.708 5.865 5.708 1.241 0 2.368-0.357 3.327-1.016l-0.056 0.439c0 3.156 2.622 5.708 5.865 5.708s5.865-2.552 5.865-5.708l-0.056-0.439c0.931 0.631 2.087 1.016 3.327 1.016 3.242 0 5.865-2.552 5.865-5.708 0-2.278-1.382-4.227-3.355-5.16 1.974-0.906 3.355-2.854 3.355-5.16 0-3.156-2.622-5.708-5.865-5.708-1.241 0-2.368 0.357-3.327 1.015l0.056-0.439c0-3.156-2.622-5.708-5.865-5.708s-5.865 2.552-5.865 5.708l0.056 0.439c-0.93-0.631-2.086-1.015-3.327-1.015-3.242 0.027-5.865 2.58-5.865 5.736 0 2.278 1.382 4.226 3.355 5.16-1.974 0.906-3.355 2.854-3.355 5.16v-0.027zM15.028 10.292c3.242 0 5.865 2.552 5.865 5.708s-2.622 5.708-5.865 5.708c-3.242 0-5.865-2.552-5.865-5.708s2.622-5.708 5.865-5.708z"></path></svg>