<svg xmlns="http://www.w3.org/2000/svg" width="65" height="65" fill="none"><circle cx="32.5" cy="32.5" r="32.5" fill="#fff"></circle><path fill="#111" d="M25.633 29.587c.066-.03.118-.054.165-.078.537-.244 1.102-.342 1.68-.244.82.136 1.347.659 1.653 1.43.208.523.222 1.07.132 1.622-.028.186.02.24.203.225.108-.01.221-.03.33-.04h.164c-.504.596-1.144.924-1.817 1.241a5.987 5.987 0 0 0 .447-2.085c.15.175.15.43.367.561.038-.117.08-.22.1-.327.14-.816-.185-1.792-1.15-2.149-.852-.312-1.624-.127-2.307.484-1.474 1.323-1.502 3.79-.052 5.147.862.811 1.893 1.114 3.037 1.04a3.857 3.857 0 0 0 1.907-.649c.24-.156.49-.303.73-.454.019-.01.038-.02.07-.034l.566 7.389c-.024-.015-.038-.02-.047-.03-.98-.747-2.025-1.377-3.075-2.007-.4-.239-.81-.468-1.215-.703-.033-.02-.066-.03-.052-.088.174-.85-.066-1.582-.598-2.222a3.762 3.762 0 0 0-.828-.733c-.881-.571-1.573-1.323-1.988-2.32-.287-.688-.362-1.406-.296-2.158.061-.694.358-1.275.683-1.86.202-.372.41-.743.574-1.134.542-1.284-.395-2.632-1.63-2.73-.79-.064-1.44.23-1.977.801-.828.874-1.182 1.939-1.111 3.16.028.488.132.957.386 1.377.108.18.245.342.405.484.099-.064.137-.166.165-.269.028-.093.052-.186.08-.274.014-.044.042-.078.075-.141.18.689.48 1.299.824 1.905-.72-.083-1.398-.245-2.034-.626.221-.078.447-.102.617-.268-.09-.161-.184-.313-.26-.47-.465-.937-.654-1.928-.508-2.983.212-1.504 1.319-2.755 2.74-3.101.952-.23 2.054.263 2.539 1.143.141.258.202.546.226.835.033.376.052.752.075 1.133v.21l.005-.01ZM32.295 42.661c-.043-.454-.085-.884-.123-1.314-.117-1.411-.23-2.823-.338-4.239-.057-.693-.1-1.387-.146-2.08 0-.05.018-.113.047-.147.456-.542.8-1.153 1.012-1.836.01-.035.033-.078.061-.093.518-.25.97-.61 1.427-.962.056-.044.118-.088.174-.132.01-.005.014-.01.033-.015 1.107 1.675 2.218 3.35 3.33 5.03l-.66.474c-1.017.752-1.912 1.636-2.736 2.603-.716.836-1.37 1.724-2.015 2.618-.014.02-.033.044-.066.083v.01Z"></path><path fill="#111" d="M43.229 46.798c-.085.361-.184.718-.255 1.079a3.42 3.42 0 0 0-.014 1.118c-.08-.014-.146-.024-.216-.039-1.21-.254-2.43-.405-3.668-.38-.702.014-1.394.097-2.09.19-.495.068-.99.142-1.484.21-.028 0-.052.005-.104.01.033-.03.047-.044.066-.059.805-.581 1.239-1.392 1.413-2.388.264-1.495-.787-3.072-2.12-3.507-.588-.19-1.195-.273-1.807-.312-.029 0-.057 0-.118-.01a18.654 18.654 0 0 1 4.337-4.845c.01.005.019.01.028.02-.019.063-.028.132-.052.195-.09.259-.198.513-.264.781-.197.797-.183 1.583.137 2.35.396.952 1.319 1.533 2.288 1.44.109-.01.212-.034.33-.054-.019.025-.028.044-.042.06-.396.453-.744.937-.956 1.518-.245.67-.264 1.343.019 2.002.301.699.847 1.094 1.568 1.24 1.054.216 2.03-.009 2.938-.58l.07-.044-.004.005ZM35.913 26.495c-.438-.185-.866-.356-1.29-.547-1.45-.659-2.792-1.514-4.06-2.495a.241.241 0 0 1-.089-.127c-.17-.596-.334-1.192-.499-1.788 0-.01 0-.024-.01-.044.156-.02.307-.034.458-.053.41-.044.819-.088 1.229-.137.042-.005.089-.049.113-.088.268-.454.532-.913.8-1.367.014-.02.024-.04.042-.069 1.601.689 3.282.938 5.015.957-.141.914-.325 1.807-.367 2.735-.608-.254-1.2-.508-1.804-.762-.014.074-.028.142-.032.206-.033.41.009.815.08 1.22.014.069.047.064.094.06.541-.045 1.083-.089 1.629-.128h.061c-.537.762-1.097 1.495-1.375 2.423l.005.004Zm-2.891-4.532c.376-.146.734-.283 1.097-.425v-.02c-.372-.116-.749-.239-1.135-.36.014.273.024.532.038.805ZM43.324 30.324c.55.127 1.088.166 1.625.152-.071.351-.146.688-.203 1.035-.137.845-.155 1.695-.118 2.55.043.928.156 1.846.311 2.759 0 .02 0 .044-.005.068a.45.45 0 0 1-.037-.063c-.311-.572-.711-1.05-1.262-1.382a1.708 1.708 0 0 0-.843-.254c-.88-.04-1.723.141-2.547.449-.702.259-1.361.6-2.02.962l-.095.049c-1.12-1.695-2.236-3.385-3.366-5.099 1.568-.112 3.112-.22 4.67-.327v.088c-.018.503.02 1.001.203 1.47.316.806.852 1.353 1.7 1.5.984.175 1.785-.28 2.213-1.212.259-.562.273-1.138.127-1.724-.07-.288-.184-.561-.282-.84-.02-.054-.047-.107-.076-.18h.005ZM23.086 42.783c.104.04.193.078.287.103.918.239 1.757.063 2.496-.562.593-.498 1.031-1.118 1.351-1.831.014-.035.033-.074.052-.108 0-.005.01-.01.024-.024 1.346.664 2.594 1.5 3.814 2.388 0 .01-.005.02-.01.03-.09.009-.184.019-.273.024-1.168.107-2.298.39-3.395.815-.315.122-.63.235-.909.44-.503.366-.899.825-1.11 1.436a2.225 2.225 0 0 0-.128.879c.019.342.188.6.424.825.386.367.852.464 1.36.43.434-.03.839-.171 1.225-.371a.437.437 0 0 1 .085-.034c-.311.566-.608 1.138-.777 1.767h-.038c-.815-.297-1.657-.376-2.51-.356-.805.015-1.596.122-2.387.269-.024 0-.042.005-.08.01.07-.079.137-.142.198-.21.8-.875 1.229-1.9 1.22-3.117-.005-.737-.213-1.426-.528-2.075-.108-.22-.23-.435-.344-.655-.01-.02-.023-.039-.038-.073h-.009Z"></path><path fill="#111" d="M29.645 24.947c.212-.376.424-.757.64-1.147.039.024.062.043.09.063 1.107.825 2.26 1.582 3.49 2.198 1.27.635 2.599 1.099 3.988 1.367.028.005.056.015.113.025-1.446 1.91-3.033 3.643-5.034 4.937.334-3.17-.692-5.665-3.287-7.443ZM25.906 25.29c.202-.255.39-.49.58-.724.395-.493.785-.981 1.18-1.47.043-.053.039-.097.02-.151-.344-1.148-.683-2.29-1.022-3.438-.019-.059-.033-.118-.052-.19.076-.01.142-.02.207-.03.796-.088 1.592-.18 2.388-.269.268-.03.541-.063.81-.088.066-.005.08-.049.103-.097.4-.899.805-1.802 1.206-2.701.014-.034.032-.073.06-.132 0 .054.01.083.01.107.024.655.094 1.3.26 1.93.126.503.31.981.56 1.435a.142.142 0 0 1 0 .108c-.227.41-.457.82-.693 1.23a.17.17 0 0 1-.108.074c-.63.078-1.267.151-1.898.224-.032 0-.06.01-.103.02.01.044.019.083.033.122.184.684.372 1.368.555 2.051a.22.22 0 0 1-.023.181c-.24.415-.476.83-.716 1.245-.019.03-.061.064-.094.069-1.088.059-2.157.254-3.216.493-.01 0-.024 0-.056.005l.009-.005ZM35.385 31.032a35.01 35.01 0 0 0 3.032-3.482c.047-.058.09-.083.165-.083.716.02 1.427-.034 2.124-.224.805-.215 1.53-.581 2.114-1.211.31-.337.555-.718.72-1.148.207-.538.146-1.08-.042-1.607-.075-.205-.18-.405-.273-.61A3.81 3.81 0 0 0 45 22.52c-.391 1.924-.358 3.839-.014 5.782-.127-.073-.24-.127-.34-.2-.833-.586-1.727-.625-2.66-.327-.748.24-1.29.762-1.756 1.387a3.661 3.661 0 0 0-.654 1.426c-.015.059-.043.078-.095.083-.64.069-1.276.152-1.916.21-.673.059-1.347.098-2.02.147h-.156l-.004.005Z"></path></svg>