<svg xmlns="http://www.w3.org/2000/svg" width="65" height="65" fill="none"><circle cx="32.5" cy="32.5" r="32.5" fill="#fff"></circle><path fill="#111" d="M28.029 33.516V20.045c.248 0 .518-.043.767-.043 2.135 0 4.27.043 6.384 0 2.84-.064 4.892 1.213 6.032 3.852 1.16 2.681.767 5.256-1.058 7.555l-.435.51c3.752 2.363 5.016 5.193 3.876 8.62-.733 2.22-2.508 4.476-6.393 4.46h-1.255v-1.886h1.637c2.57 0 4.519-2.064 4.519-4.703 0-2.788-1.907-4.852-4.519-4.852h-9.597l.042-.042Zm1.824-1.83h.767c1.513 0 3.026-.064 4.518 0 3.255.19 5.12-2.703 4.83-5.491-.249-2.32-1.928-4.469-4.664-4.363-1.575.064-3.15 0-4.726 0h-.746v9.81l.02.043Z"></path><path fill="#111" d="M30.7 39.389H21V20h1.762v17.538H30.7v1.851ZM21 45v-1.866h9.721V45H21Z"></path></svg>