<svg xmlns="http://www.w3.org/2000/svg" width="65" height="65" fill="none"><circle cx="32.5" cy="32.5" r="32.5" fill="#fff"></circle><path fill="#111" d="M37.228 45.005a6.683 6.683 0 0 0 4.785-2.01 6.864 6.864 0 0 0 1.982-4.849 6.864 6.864 0 0 0-1.982-4.85 6.682 6.682 0 0 0-4.785-2.008 6.682 6.682 0 0 0-4.786 2.009 6.864 6.864 0 0 0-1.982 4.85c0 1.83.705 3.555 1.982 4.849a6.683 6.683 0 0 0 4.786 2.009Zm-5.025-6.864c0-1.36.52-2.64 1.47-3.602a4.96 4.96 0 0 1 3.555-1.49 4.96 4.96 0 0 1 3.554 1.49 5.095 5.095 0 0 1 1.47 3.602c0 2.808-2.254 5.098-5.029 5.098a4.96 4.96 0 0 1-3.554-1.49 5.095 5.095 0 0 1-1.471-3.603l.005-.005ZM28.146 37.062c.447.794.682 1.7.682 2.621 0 1.42-.544 2.757-1.54 3.766a5.174 5.174 0 0 1-3.715 1.56H21V20.35h1.724c2.08 0 4.034.823 5.5 2.313a7.905 7.905 0 0 1 2.277 5.574 7.888 7.888 0 0 1-4.116 6.956 5.298 5.298 0 0 1 1.756 1.87h.005Zm-1.153-4.499a6.124 6.124 0 0 0 1.77-4.326 6.105 6.105 0 0 0-1.77-4.326 5.969 5.969 0 0 0-4.241-1.795v12.241a5.964 5.964 0 0 0 4.241-1.794Zm-4.241 10.68h.825c1.936 0 3.513-1.598 3.513-3.56 0-.948-.364-1.845-1.028-2.518a3.463 3.463 0 0 0-2.485-1.042s-.682 0-.825-.005v7.125ZM38.92 20.747l-.019.02-.387.392-.562.57-.019.018-.018-.018a.956.956 0 0 0-.696-.295c-.25 0-.521.117-.706.309a.962.962 0 0 0-.276.691c0 .318.115.519.3.71.34.35 3.116 3.168 3.116 3.168l.936-.949.018-.018.019.018.95.968.018.018-.019.019-.936.944 1.319 1.336.018.019-.018.018-.945.967-.019.02-.018-.02-1.319-1.336c-.216.215-.442.444-.843.85a2.843 2.843 0 0 1-1.757.809c-.548.046-1.355-.056-2.093-.804-.525-.532-.802-1.191-.802-1.906 0-.715.304-1.504.798-2.004l.53-.533.318-.318-.06-.06c-.272-.267-.908-.883-.908-1.93 0-.607.24-1.215.66-1.668A2.324 2.324 0 0 1 37.222 20a2.34 2.34 0 0 1 1.683.706l.028.032-.014.01Zm-.263 6.56-1.876-1.883-.84.85a1.392 1.392 0 0 0-.387.958c0 .35.134.673.388.93.58.589 1.383.49 1.862.005.401-.402.765-.776.853-.865v.005Z"></path></svg>