<svg xmlns="http://www.w3.org/2000/svg" width="65" height="65" fill="none"><circle cx="32.5" cy="32.5" r="32.5" fill="#fff"></circle><g fill="#111"><path d="M15.956 32.229c.734.487 1.467.609 2.238.388 1.297-.365 1.986-1.682 1.667-3.15-.281-1.287-1.482-2.086-2.786-1.865-1.178.205-1.993 1.096-2.008 2.336-.03 2.565-.015 5.122-.023 7.687v.434h-2.037V37.7c0-2.428-.023-4.848.014-7.276a7.24 7.24 0 0 1 .297-1.986c.363-1.203 1.186-2.032 2.334-2.474 1.2-.464 2.423-.456 3.624.008 1.815.708 2.734 2.428 2.682 4.399-.037 1.454-.548 2.694-1.756 3.516-1.223.837-2.549 1.02-3.935.419-.237-.1-.333-.244-.326-.518.022-.502 0-1.005 0-1.568l.015.008ZM31.266 25.813v8.57h-2.238v-.784c-.23.183-.4.35-.593.464-1.326.769-2.645.685-3.927-.084-1.564-.936-2.342-2.762-2.023-4.642.31-1.834 1.674-3.326 3.423-3.63 1.178-.206 2.29-.039 3.164 1.065v-.959h2.201-.007Zm-6.803 4.323c-.007 1.301 1.075 2.39 2.386 2.397 1.312 0 2.43-1.073 2.438-2.351.008-1.37-1.067-2.481-2.408-2.497-1.312-.015-2.401 1.096-2.416 2.459v-.008ZM51.844 25.866c-1.334 1.431-2.616 2.809-3.913 4.194 1.342 1.446 2.676 2.877 4.069 4.369-.912 0-1.734.007-2.55-.008-.103 0-.222-.137-.303-.228-.941-1.066-1.883-2.139-2.824-3.204a25.742 25.742 0 0 0-.333-.366v3.79h-2.023V22.145h2.008v7.428c.63-.708 1.193-1.34 1.749-1.971.467-.526.926-1.05 1.393-1.576.06-.068.156-.16.237-.16.808-.015 1.616 0 2.505 0h-.015ZM34.066 34.413h-1.978s-.037-.053-.037-.076c.014-1.705-.037-3.41.052-5.107.118-2.07 1.57-3.463 3.586-3.577.786-.045 1.556 0 2.297.312 1.408.586 2.142 1.736 2.231 3.22.104 1.704.044 3.424.052 5.144 0 .023-.015.038-.037.084h-1.986v-4.498c0-.616-.104-1.217-.534-1.69-.66-.722-1.482-.79-2.341-.517-.838.267-1.238.944-1.275 1.789-.06 1.484-.03 2.968-.044 4.46v.464l.014-.008ZM41.085 25.874h1.979v8.54h-1.979v-8.54ZM41.01 41.042H37.81c-.082.67.445 1.271 1.156 1.347.452.046.904-.046 1.164-.441.23-.35.504-.328.822-.282-.26.967-1.326 1.53-2.364 1.271-1.052-.266-1.653-1.332-1.423-2.511.23-1.142 1.208-1.789 2.386-1.583.979.175 1.609 1.096 1.453 2.2h.008Zm-3.216-.495h2.616c-.044-.677-.563-1.156-1.252-1.172-.756-.015-1.29.442-1.357 1.172h-.007ZM21.187 42.968c-1.186 0-2.06-.89-2.06-2.086 0-1.18.897-2.077 2.075-2.077 1.193 0 2.075.905 2.075 2.115 0 1.188-.889 2.055-2.09 2.055v-.007Zm.037-3.577c-.83 0-1.474.631-1.482 1.476-.015.86.63 1.545 1.453 1.545.808 0 1.46-.662 1.475-1.5.014-.829-.638-1.514-1.446-1.521ZM28.058 38.911h.556v3.958h-.497a30.649 30.649 0 0 0-.081-.533c-.445.548-.993.685-1.601.632-.726-.061-1.312-.571-1.349-1.317-.044-.898-.015-1.804-.015-2.725h.586v.624c0 .586-.008 1.165.022 1.75.037.716.415 1.09 1.067 1.104.667.016 1.23-.426 1.283-1.088.044-.616.022-1.233.03-1.85v-.555ZM42.07 24.77c-.793-.007-1.326-.57-1.319-1.4.008-.814.563-1.378 1.349-1.37.778.008 1.334.601 1.327 1.4-.008.807-.571 1.37-1.357 1.363v.007ZM31.058 39.444c-.267-.015-.497-.023-.742-.038v-.502h.742v-.64c.007-.654-.075-.51.585-.662v1.279h1.327v.532h-1.282c0 .838-.023 1.63.007 2.428.015.32.304.518.674.556.163.015.334 0 .52 0 0 .091.014.182.014.266 0 .076-.007.16-.015.236-1.237.29-1.882-.388-1.838-1.393.03-.685 0-1.362 0-2.077l.008.015ZM43.107 39.436c-.215-.007-.444-.023-.689-.03v-.502h.741v-.64c.008-.654-.074-.51.586-.662v1.279h1.326v.532H43.79c0 .838-.022 1.63.008 2.428.014.32.303.518.674.556.163.015.334 0 .511 0v.502c-1.237.29-1.882-.388-1.838-1.393.03-.662 0-1.324 0-1.986 0-.023-.014-.038-.044-.091l.007.007ZM35.253 42.876h-.578v-5.83h.578v5.83Z"></path></g></svg>