<svg xmlns="http://www.w3.org/2000/svg" viewBox="0 0 56 42" fill="none"><path d="M53.109 1H31.587a2.393 2.393 0 0 0-2.391 2.388V23.69a2.393 2.393 0 0 0 2.391 2.388H41.75v14.33c0 .563.738.81 1.076.359L55.38 24.048a.6.6 0 0 0 .12-.358V3.388A2.39 2.39 0 0 0 53.109 1Zm1.195 22.49L42.946 38.618V25.481a.597.597 0 0 0-.598-.597H31.587c-.66 0-1.196-.536-1.196-1.194V3.388c0-.658.537-1.194 1.196-1.194h21.522c.659 0 1.195.536 1.195 1.194zM24.413 1H2.891A2.393 2.393 0 0 0 .5 3.388V23.69a2.393 2.393 0 0 0 2.391 2.388h10.163v14.33c0 .56.738.81 1.076.359l12.555-16.719a.6.6 0 0 0 .12-.358V3.388A2.393 2.393 0 0 0 24.412 1Zm1.196 22.49L14.25 38.618V25.481a.597.597 0 0 0-.598-.597H2.892c-.66 0-1.196-.536-1.196-1.194V3.388c0-.658.536-1.194 1.195-1.194h21.522c.66 0 1.196.536 1.196 1.194z" fill="currentColor" stroke="currentColor" stroke-width=".5"></path></svg>