<svg xmlns="http://www.w3.org/2000/svg" width="12" height="10" viewBox="0 0 12 10"><path fill="currentColor" d="M7.283 8.783a.78.78 0 0 1-.545.211.7.7 0 0 1-.51-.21A.72.72 0 0 1 6 8.255q0-.317.229-.527l3.216-3.235L6.23 1.277A.7.7 0 0 1 6 .75q0-.316.229-.527a.67.67 0 0 1 .51-.229.74.74 0 0 1 .544.229l3.744 3.744a.74.74 0 0 1 .229.545.67.67 0 0 1-.229.51zm-5.256 0a.72.72 0 0 1-.527.211.72.72 0 0 1-.527-.21.72.72 0 0 1-.229-.528q0-.317.229-.527l3.216-3.235L.973 1.277A.7.7 0 0 1 .744.75q0-.316.229-.527A.7.7 0 0 1 1.5-.006q.316 0 .527.229l3.744 3.744A.74.74 0 0 1 6 4.512a.67.67 0 0 1-.229.51z"></path></svg>