<svg xmlns="http://www.w3.org/2000/svg" width="20" height="32" viewBox="0 0 20 32"><path d="M17.146 17.4l-2.839-2.827 1.888-1.907c0.249-0.248 0.447-0.542 0.581-0.866s0.204-0.671 0.204-1.021-0.069-0.697-0.204-1.021c-0.135-0.324-0.332-0.618-0.581-0.865-0.509-0.485-1.187-0.755-1.892-0.755s-1.382 0.27-1.892 0.755l-1.862 1.907-1.42-1.413c-0.511-0.485-1.189-0.756-1.895-0.756s-1.384 0.271-1.895 0.756c-0.249 0.248-0.447 0.542-0.581 0.866s-0.204 0.671-0.204 1.021c0 0.35 0.069 0.697 0.204 1.021s0.332 0.618 0.581 0.865c0.723 0.713 0.188 0-0.87 1.020-0.382 0.384-0.638 0.875-0.734 1.407s-0.027 1.081 0.198 1.573c-0.46 0.074-0.892 0.268-1.252 0.563s-0.636 0.679-0.798 1.114c-0.163 0.435-0.207 0.905-0.127 1.362s0.279 0.886 0.578 1.241c-0.455 0.116-0.872 0.349-1.208 0.676s-0.58 0.737-0.707 1.187c-0.127 0.451-0.132 0.927-0.016 1.38s0.35 0.868 0.679 1.203c3.576 3.593 5.337 6.114 9.468 6.114 3.348 0 5.096-1.753 6.629-3.28 0.745-0.745 1.335-1.629 1.736-2.602s0.607-2.014 0.603-3.065c-0.003-1.051-0.214-2.092-0.622-3.062s-1.003-1.851-1.752-2.591zM13.356 9.859c0.187-0.188 0.426-0.316 0.686-0.368s0.53-0.027 0.776 0.074 0.455 0.272 0.603 0.492c0.148 0.22 0.226 0.478 0.226 0.742 0 0.793-0.516 1.060-2.29 2.827l-1.895-1.88 1.895-1.887zM16.202 27.773l-0.964 0.94c-1.256 1.25-2.959 1.952-4.734 1.952s-3.479-0.702-4.734-1.952c-4.018-4-4.178-4-4.178-4.713 0.001-0.263 0.080-0.52 0.228-0.738s0.356-0.388 0.6-0.489c0.244-0.1 0.512-0.127 0.771-0.076s0.497 0.177 0.684 0.362c3.536 3.52 3.395 3.493 3.79 3.493 0.132-0.001 0.262-0.040 0.372-0.114s0.195-0.178 0.245-0.3c0.050-0.122 0.063-0.256 0.036-0.385s-0.091-0.248-0.185-0.341l-4.734-4.713c-0.125-0.124-0.223-0.271-0.291-0.433s-0.102-0.335-0.102-0.511c0-0.175 0.035-0.349 0.102-0.511s0.166-0.309 0.291-0.433c0.256-0.241 0.595-0.375 0.947-0.375s0.691 0.134 0.947 0.375l4.734 4.713c0.125 0.125 0.295 0.196 0.473 0.197s0.348-0.069 0.474-0.194 0.197-0.294 0.198-0.471c0.001-0.177-0.069-0.347-0.195-0.472l-5.605-5.58c-0.251-0.25-0.392-0.59-0.392-0.943s0.141-0.693 0.392-0.943c0.251-0.25 0.592-0.391 0.947-0.391s0.696 0.141 0.947 0.391c6.027 6.034 5.678 5.774 6.073 5.774 0.132-0.001 0.26-0.040 0.37-0.113s0.195-0.176 0.246-0.297c0.051-0.121 0.065-0.254 0.040-0.383s-0.087-0.247-0.179-0.341l-7.56-7.547c-0.125-0.124-0.223-0.271-0.291-0.433s-0.102-0.335-0.102-0.511 0.035-0.349 0.102-0.511c0.067-0.162 0.166-0.309 0.291-0.433 0.251-0.248 0.59-0.388 0.944-0.388s0.693 0.139 0.944 0.388l8.035 8c0.626 0.618 1.123 1.353 1.463 2.163s0.516 1.679 0.518 2.556c0.002 0.878-0.17 1.747-0.507 2.558s-0.83 1.548-1.454 2.169z"></path><path d="M10.076 7.886c0.062 0.062 0.136 0.112 0.218 0.146s0.169 0.051 0.257 0.051c0.088 0 0.176-0.017 0.258-0.051s0.156-0.083 0.218-0.146l3.449-3.433c2.391-2.38-1.085-6.294-3.924-3.467l-0.214-0.22c-0.491-0.489-1.157-0.764-1.851-0.764s-1.361 0.275-1.852 0.764c-0.491 0.489-0.767 1.152-0.767 1.843s0.276 1.354 0.767 1.843l3.442 3.433zM8.844 1.386c0.402 0.12 0.542 0.32 1.232 1.013 0.062 0.063 0.136 0.112 0.218 0.146s0.169 0.051 0.257 0.051c0.088 0 0.176-0.017 0.258-0.051s0.156-0.083 0.218-0.146l0.67-0.667c0.241-0.239 0.567-0.372 0.906-0.372s0.665 0.136 0.905 0.375 0.374 0.564 0.373 0.902c-0.001 0.338-0.136 0.662-0.377 0.901l-2.953 2.933c-3.174-3.14-3.348-3.14-3.348-3.86 0.001-0.198 0.047-0.393 0.136-0.57s0.218-0.331 0.377-0.45 0.344-0.199 0.539-0.235c0.196-0.036 0.397-0.026 0.588 0.029z"></path></svg>