<svg xmlns="http://www.w3.org/2000/svg" width="34" height="32" viewBox="0 0 34 32"><path d="M16.8 30c6.080 0 11.107-4.533 11.893-10.4 0.12-0.853-0.64-1.613-1.493-1.493-5.867 0.787-10.4 5.813-10.4 11.893zM8.266 14.334c0 1.84 1.493 3.333 3.333 3.333 0.707 0 1.347-0.213 1.893-0.587l-0.027 0.253c0 1.84 1.493 3.333 3.333 3.333s3.333-1.493 3.333-3.333l-0.027-0.253c0.533 0.373 1.187 0.587 1.893 0.587 1.84 0 3.333-1.493 3.333-3.333 0-1.333-0.787-2.467-1.907-3 1.12-0.533 1.907-1.667 1.907-3 0-1.84-1.493-3.333-3.333-3.333-0.707 0-1.347 0.213-1.893 0.587l0.027-0.253c0-1.84-1.493-3.333-3.333-3.333s-3.333 1.493-3.333 3.333l0.027 0.253c-0.533-0.373-1.187-0.587-1.893-0.587-1.84 0-3.333 1.493-3.333 3.333 0 1.333 0.787 2.467 1.907 3-1.12 0.533-1.907 1.667-1.907 3zM16.8 8c1.84 0 3.333 1.493 3.333 3.333s-1.493 3.333-3.333 3.333c-1.84 0-3.333-1.493-3.333-3.333s1.493-3.333 3.333-3.333zM4.906 19.6c0.787 5.867 5.813 10.4 11.893 10.4 0-6.080-4.533-11.107-10.4-11.893-0.853-0.12-1.613 0.64-1.493 1.493z"></path></svg>