<svg width="61" height="6" viewBox="0 0 61 6" fill="none" xmlns="http://www.w3.org/2000/svg">
<path d="M0.916039 1.84319C1.4627 1.39531 2.2201 1.46069 2.76468 2.00322C4.59453 3.82303 7.19847 3.83962 9.08674 2.04323C12.036 -0.763091 16.4281 -0.664538 19.2323 2.25204C19.5773 2.61117 19.9825 2.91536 20.432 3.15268C22.1106 4.02599 24.0052 3.73814 25.4062 2.51355C26.0322 1.96809 26.6926 1.41776 27.4395 1.04111C28.374 0.54975 29.4279 0.291647 30.4999 0.291647C31.5719 0.291647 32.6258 0.54975 33.5602 1.04111C34.3072 1.41776 34.9697 1.96809 35.5935 2.51355C36.9946 3.73912 38.8891 4.02599 40.5677 3.15268C41.0172 2.91536 41.4225 2.61117 41.7675 2.25204C44.5717 -0.664538 48.9658 -0.763091 51.913 2.04323C53.8013 3.83962 56.4052 3.82303 58.2351 2.00322C58.7797 1.46362 59.5371 1.39531 60.0827 1.84319C60.6283 2.29107 60.6387 2.99168 60.115 3.55372C59.5127 4.19776 58.7757 4.71963 57.9496 5.08715C57.1234 5.45468 56.2256 5.66008 55.3113 5.69071C54.3971 5.72133 53.4858 5.57653 52.6336 5.26522C51.7815 4.95392 51.0065 4.4827 50.3565 3.8806C49.5021 3.08437 48.5746 2.4472 47.3311 2.34669C45.8559 2.22667 44.6739 2.77213 43.6902 3.76351C40.7951 6.67814 36.6399 6.75035 33.6009 3.94696C32.6537 3.06876 31.5739 2.63162 30.4994 2.61405C29.4259 2.63162 28.3461 3.07267 27.3988 3.94696C24.3599 6.75035 20.2004 6.67912 17.3096 3.76351C16.3258 2.77213 15.1438 2.22667 13.6676 2.34669C12.4241 2.44427 11.4966 3.08437 10.6422 3.8806C9.99228 4.48267 9.2174 4.95387 8.36534 5.26517C7.51328 5.57647 6.60208 5.72126 5.68791 5.69064C4.77374 5.66001 3.87596 5.45461 3.04989 5.0871C2.22382 4.71958 1.48697 4.19774 0.884743 3.55372C0.359989 2.99168 0.37355 2.28815 0.916039 1.84319Z" fill="white"/>
</svg>
