<svg xmlns="http://www.w3.org/2000/svg" width="14" height="15" viewBox="0 0 14 15" fill="none"><path d="M2.32812 7.32812C2.24479 7.32812 2.16146 7.34896 2.07812 7.39062C1.99479 7.42188 1.92188 7.46875 1.85938 7.53125C1.79688 7.59375 1.75 7.66667 1.71875 7.75C1.6875 7.82292 1.67188 7.90625 1.67188 8V12.6719C1.67188 12.7552 1.6875 12.8385 1.71875 12.9219C1.75 13.0052 1.79688 13.0781 1.85938 13.1406C1.92188 13.2031 1.99479 13.25 2.07812 13.2812C2.16146 13.3125 2.24479 13.3281 2.32812 13.3281H11.6719C11.7552 13.3281 11.8385 13.3125 11.9219 13.2812C12.0052 13.25 12.0781 13.2031 12.1406 13.1406C12.2031 13.0781 12.25 13.0052 12.2812 12.9219C12.3125 12.8385 12.3281 12.7552 12.3281 12.6719V8C12.3281 7.90625 12.3125 7.82292 12.2812 7.75C12.25 7.66667 12.2031 7.59375 12.1406 7.53125C12.0781 7.46875 12.0052 7.42188 11.9219 7.39062C11.8385 7.34896 11.7552 7.32812 11.6719 7.32812H2.32812ZM11 6H11.6719C11.9427 6 12.1979 6.05208 12.4375 6.15625C12.6875 6.26042 12.901 6.40625 13.0781 6.59375C13.2656 6.77083 13.4115 6.98438 13.5156 7.23438C13.6198 7.47396 13.6719 7.72917 13.6719 8V12.6719C13.6719 12.9427 13.6146 13.2031 13.5 13.4531C13.3958 13.6927 13.2552 13.901 13.0781 14.0781C12.901 14.2656 12.6875 14.4115 12.4375 14.5156C12.1979 14.6198 11.9427 14.6719 11.6719 14.6719H2.32812C2.05729 14.6719 1.79688 14.6146 1.54688 14.5C1.30729 14.3958 1.09896 14.2552 0.921875 14.0781C0.734375 13.901 0.588542 13.6927 0.484375 13.4531C0.380208 13.2031 0.328125 12.9427 0.328125 12.6719V8C0.328125 7.72917 0.380208 7.47396 0.484375 7.23438C0.598958 6.98438 0.744792 6.77083 0.921875 6.59375C1.09896 6.40625 1.30729 6.26042 1.54688 6.15625C1.79688 6.05208 2.05729 6 2.32812 6H3V4C3 3.44792 3.10417 2.93229 3.3125 2.45312C3.52083 1.96354 3.80729 1.53646 4.17188 1.17188C4.53646 0.807292 4.95833 0.520833 5.4375 0.3125C5.92708 0.104167 6.44792 0 7 0C7.55208 0 8.06771 0.104167 8.54688 0.3125C9.03646 0.520833 9.46354 0.807292 9.82812 1.17188C10.1927 1.53646 10.4792 1.96354 10.6875 2.45312C10.8958 2.93229 11 3.44792 11 4V6ZM4.32812 6H9.67188V4C9.67188 3.63542 9.59896 3.29167 9.45312 2.96875C9.31771 2.64583 9.13021 2.35938 8.89062 2.10938C8.64062 1.86979 8.35417 1.68229 8.03125 1.54688C7.70833 1.40104 7.36458 1.32812 7 1.32812C6.63542 1.32812 6.29167 1.40104 5.96875 1.54688C5.64583 1.68229 5.35938 1.86979 5.10938 2.10938C4.86979 2.35938 4.67708 2.64583 4.53125 2.96875C4.39583 3.29167 4.32812 3.63542 4.32812 4V6Z" fill="#111111"></path></svg>