<svg xmlns="http://www.w3.org/2000/svg" fill="none" viewBox="0 0 82 36" height="36" width="82"><path fill="white" d="M62.0996 3.99995C62.9996 3.09995 64.4996 3.09995 65.3996 3.99995C66.2996 4.89995 66.2996 6.39995 65.3996 7.29995C64.4996 8.19995 62.9996 8.19995 62.0996 7.29995C61.0996 6.39995 61.0996 4.89995 62.0996 3.99995Z"></path><path fill="white" d="M65.5998 9.3999H61.7998V26.3999H65.5998V9.3999Z"></path><path fill="white" d="M8.69961 9.3999C6.29961 9.3999 4.29961 10.1999 2.59961 11.8999C0.899609 13.5999 0.0996094 15.5999 0.0996094 17.8999C0.0996094 20.1999 0.899609 22.2999 2.59961 23.8999C4.29961 25.4999 6.29961 26.3999 8.69961 26.3999C11.0996 26.3999 12.9996 25.5999 14.6996 23.8999C16.3996 22.1999 17.1996 20.1999 17.1996 17.8999C17.1996 15.5999 16.3996 13.5999 14.6996 11.8999C13.0996 10.1999 11.0996 9.3999 8.69961 9.3999ZM12.0996 21.3999C11.1996 22.2999 10.0996 22.7999 8.69961 22.7999C7.29961 22.7999 6.19961 22.2999 5.29961 21.3999C4.39961 20.4999 3.89961 19.2999 3.89961 17.8999C3.89961 16.4999 4.39961 15.2999 5.29961 14.3999C6.19961 13.4999 7.29961 12.9999 8.69961 12.9999C10.0996 12.9999 11.1996 13.4999 12.0996 14.3999C12.9996 15.2999 13.4996 16.4999 13.4996 17.8999C13.4996 19.2999 13.0996 20.4999 12.0996 21.3999Z"></path><path fill="white" d="M36.1 9.3999C33.7 9.3999 31.7 10.1999 30 11.8999C28.3 13.5999 27.5 15.5999 27.5 17.8999C27.5 20.1999 28.3 22.2999 30 23.8999C31.7 25.4999 33.7 26.3999 36.1 26.3999C38.5 26.3999 40.4 25.5999 42.1 23.8999C43.8 22.1999 44.6 20.1999 44.6 17.8999C44.6 15.5999 43.8 13.5999 42.1 11.8999C40.5 10.1999 38.5 9.3999 36.1 9.3999ZM39.5 21.3999C38.6 22.2999 37.5 22.7999 36.1 22.7999C34.7 22.7999 33.6 22.2999 32.7 21.3999C31.8 20.4999 31.3 19.2999 31.3 17.8999C31.3 16.4999 31.8 15.2999 32.7 14.3999C33.6 13.4999 34.8 12.9999 36.1 12.9999C37.5 12.9999 38.6 13.4999 39.5 14.3999C40.4 15.2999 40.9 16.4999 40.9 17.8999C40.9 19.2999 40.5 20.4999 39.5 21.3999Z"></path><path fill="white" d="M12.2 30.9999C11.3 31.8999 10.1 32.3999 8.7 32.3999C7.3 32.3999 6.2 31.8999 5.2 30.9999C4.3 30.0999 3.8 28.8999 3.8 27.3999H0C0 29.7999 0.8 31.7999 2.5 33.4999C4.3 35.1999 6.3 35.9999 8.7 35.9999C11.1 35.9999 13.1 35.1999 14.8 33.4999C16.5 31.7999 17.3 29.7999 17.3 27.3999H13.5C13.6 28.8999 13.1 29.9999 12.2 30.9999Z"></path><path fill="white" d="M17.4 11.3C18.7 11.3 19.8 10.3 19.8 8.99995C19.8 7.69995 18.7 6.69995 17.4 6.69995C16.1 6.69995 15 7.59995 15 8.89995C15 10.2 16.1 11.3 17.4 11.3Z"></path><path fill="white" d="M21.7002 26.4V0H25.5002V26.4H21.7002Z"></path><path fill="white" d="M71.3996 26.4H67.5996V17.3C67.5996 14.6 68.2996 12.6 69.6996 11.3C71.0996 10 72.7996 9.30005 74.7996 9.30005C76.7996 9.30005 78.3996 10 79.8996 11.3C81.2996 12.6 81.9996 14.6 81.9996 17.3V26.4H78.1996V17.3C78.1996 14.5 76.8996 13 74.7996 13C72.6996 13 71.3996 14.5 71.3996 17.3V26.4Z"></path><path fill="white" d="M59.7996 9.3999H48.5996C48.8996 9.8999 48.9996 10.4999 48.9996 11.1999C48.9996 11.8999 48.7996 12.4999 48.5996 12.9999H54.7996L45.5996 22.7999V26.3999H59.7996V22.7999H50.5996L59.7996 12.9999V9.3999Z"></path></svg>