<svg xmlns="http://www.w3.org/2000/svg" fill="none" viewBox="0 0 95 42" height="42" width="95">
<path fill="white" d="M71.947 4.78104C72.9897 3.73835 74.7275 3.73835 75.7702 4.78104C76.8129 5.82372 76.8129 7.56152 75.7702 8.60421C74.7275 9.64689 72.9897 9.64689 71.947 8.60421C70.7885 7.56152 70.7885 5.82372 71.947 4.78104Z"></path>
<path fill="white" d="M76.0001 11.0361H71.5977V30.7313H76.0001V11.0361Z"></path>
<path fill="white" d="M10.0806 11.0361C7.30011 11.0361 4.98304 11.963 3.01353 13.9325C1.04402 15.902 0.117188 18.2191 0.117188 20.8837C0.117188 23.5483 1.04402 25.9813 3.01353 27.8349C4.98304 29.6886 7.30011 30.7313 10.0806 30.7313C12.8611 30.7313 15.0623 29.8044 17.0318 27.8349C19.0013 25.8654 19.9282 23.5483 19.9282 20.8837C19.9282 18.2191 19.0013 15.902 17.0318 13.9325C15.1782 11.963 12.8611 11.0361 10.0806 11.0361ZM14.0196 24.9386C12.9769 25.9813 11.7026 26.5605 10.0806 26.5605C8.45865 26.5605 7.18426 25.9813 6.14158 24.9386C5.0989 23.8959 4.51963 22.5056 4.51963 20.8837C4.51963 19.2617 5.0989 17.8715 6.14158 16.8288C7.18426 15.7861 8.45865 15.2069 10.0806 15.2069C11.7026 15.2069 12.9769 15.7861 14.0196 16.8288C15.0623 17.8715 15.6416 19.2617 15.6416 20.8837C15.6416 22.5056 15.1782 23.8959 14.0196 24.9386Z"></path>
<path fill="white" d="M41.8228 11.0361C39.0423 11.0361 36.7252 11.963 34.7557 13.9325C32.7862 15.902 31.8594 18.2191 31.8594 20.8837C31.8594 23.5483 32.7862 25.9813 34.7557 27.8349C36.7252 29.6886 39.0423 30.7313 41.8228 30.7313C44.6033 30.7313 46.8045 29.8044 48.774 27.8349C50.7435 25.8654 51.6703 23.5483 51.6703 20.8837C51.6703 18.2191 50.7435 15.902 48.774 13.9325C46.9203 11.963 44.6033 11.0361 41.8228 11.0361ZM45.7618 24.9386C44.7191 25.9813 43.4447 26.5605 41.8228 26.5605C40.2008 26.5605 38.9264 25.9813 37.8838 24.9386C36.8411 23.8959 36.2618 22.5056 36.2618 20.8837C36.2618 19.2617 36.8411 17.8715 37.8838 16.8288C38.9264 15.7861 40.3167 15.2069 41.8228 15.2069C43.4447 15.2069 44.7191 15.7861 45.7618 16.8288C46.8045 17.8715 47.3838 19.2617 47.3838 20.8837C47.3838 22.5056 46.9204 23.8959 45.7618 24.9386Z"></path>
<path fill="white" d="M14.1341 36.0614C13.0915 37.104 11.7012 37.6833 10.0793 37.6833C8.45732 37.6833 7.18293 37.104 6.02439 36.0614C4.98171 35.0187 4.40244 33.6284 4.40244 31.8906H0C0 34.6711 0.926829 36.9882 2.89634 38.9577C4.98171 40.9272 7.29878 41.854 10.0793 41.854C12.8598 41.854 15.1768 40.9272 17.1463 38.9577C19.1159 36.9882 20.0427 34.6711 20.0427 31.8906H15.6402C15.7561 33.6284 15.1768 34.9028 14.1341 36.0614Z"></path>
<path fill="white" d="M20.1594 13.2375C21.6655 13.2375 22.9399 12.0789 22.9399 10.5728C22.9399 9.06674 21.6655 7.9082 20.1594 7.9082C18.6533 7.9082 17.3789 8.95089 17.3789 10.457C17.3789 11.9631 18.6533 13.2375 20.1594 13.2375Z"></path>
<path fill="white" d="M25.1406 30.7318V0.146484H29.5431V30.7318H25.1406Z"></path>
<path fill="white" d="M82.7188 30.7319H78.3164V20.1892C78.3164 17.0611 79.1274 14.7441 80.7493 13.238C82.3713 11.7319 84.3408 10.9209 86.6579 10.9209C88.9749 10.9209 90.8286 11.7319 92.5664 13.238C94.1884 14.7441 94.9993 17.0611 94.9993 20.1892V30.7319H90.5969V20.1892C90.5969 16.9453 89.0908 15.2075 86.6579 15.2075C84.2249 15.2075 82.7188 16.9453 82.7188 20.1892V30.7319Z"></path>
<path fill="#E14A5C" d="M69.2793 11.0361H56.3037C56.6513 11.6154 56.7672 12.3105 56.7672 13.1215C56.7672 13.9325 56.5354 14.6276 56.3037 15.2069H63.4867L52.8281 26.5605V30.7313H69.2793V26.5605H58.6208L69.2793 15.2069V11.0361Z"></path>
</svg>
