<svg xmlns="http://www.w3.org/2000/svg" fill="none" viewBox="0 0 82 36" height="36" width="82"><path fill="#FFF" d="M62.1 4c.9-.9 2.4-.9 3.3 0s.9 2.4 0 3.3-2.4.9-3.3 0c-1-.9-1-2.4 0-3.3m3.5 5.4h-3.8v17h3.8zm-56.9 0c-2.4 0-4.4.8-6.1 2.5s-2.5 3.7-2.5 6 .8 4.4 2.5 6 3.7 2.5 6.1 2.5 4.3-.8 6-2.5 2.5-3.7 2.5-6-.8-4.3-2.5-6c-1.6-1.7-3.6-2.5-6-2.5m3.4 12c-.9.9-2 1.4-3.4 1.4s-2.5-.5-3.4-1.4-1.4-2.1-1.4-3.5.5-2.6 1.4-3.5 2-1.4 3.4-1.4 2.5.5 3.4 1.4 1.4 2.1 1.4 3.5-.4 2.6-1.4 3.5m24-12c-2.4 0-4.4.8-6.1 2.5s-2.5 3.7-2.5 6 .8 4.4 2.5 6 3.7 2.5 6.1 2.5 4.3-.8 6-2.5 2.5-3.7 2.5-6-.8-4.3-2.5-6c-1.6-1.7-3.6-2.5-6-2.5m3.4 12c-.9.9-2 1.4-3.4 1.4s-2.5-.5-3.4-1.4-1.4-2.1-1.4-3.5.5-2.6 1.4-3.5 2.1-1.4 3.4-1.4c1.4 0 2.5.5 3.4 1.4s1.4 2.1 1.4 3.5-.4 2.6-1.4 3.5M12.2 31c-.9.9-2.1 1.4-3.5 1.4s-2.5-.5-3.5-1.4c-.9-.9-1.4-2.1-1.4-3.6H0c0 2.4.8 4.4 2.5 6.1C4.3 35.2 6.3 36 8.7 36s4.4-.8 6.1-2.5 2.5-3.7 2.5-6.1h-3.8c.1 1.5-.4 2.6-1.3 3.6m5.2-19.7c1.3 0 2.4-1 2.4-2.3s-1.1-2.3-2.4-2.3-2.4.9-2.4 2.2 1.1 2.4 2.4 2.4m4.3 15.1V0h3.8v26.4zm49.7 0h-3.8v-9.1q0-4.05 2.1-6c1.4-1.3 3.1-2 5.1-2s3.6.7 5.1 2q2.1 1.95 2.1 6v9.1h-3.8v-9.1c0-2.8-1.3-4.3-3.4-4.3s-3.4 1.5-3.4 4.3zm-11.6-17H48.6c.3.5.4 1.1.4 1.8s-.2 1.3-.4 1.8h6.2l-9.2 9.8v3.6h14.2v-3.6h-9.2l9.2-9.8z"></path></svg>