<svg xmlns="http://www.w3.org/2000/svg" fill="none" viewBox="0 0 115 50" height="50" width="115">
<path fill="white" d="M87.0987 5.55542C88.3609 4.30542 90.4646 4.30542 91.7268 5.55542C92.9889 6.80542 92.9889 8.88875 91.7268 10.1388C90.4646 11.3888 88.3609 11.3888 87.0987 10.1388C85.6963 8.88875 85.6963 6.80542 87.0987 5.55542Z"></path>
<path fill="white" d="M92.009 13.0554H86.6797V36.6665H92.009V13.0554Z"></path>
<path fill="white" d="M12.2094 13.0554C8.84356 13.0554 6.03868 14.1665 3.65454 16.5276C1.27039 18.8888 0.148438 21.6665 0.148438 24.861C0.148438 28.0554 1.27039 30.9721 3.65454 33.1943C6.03868 35.4165 8.84356 36.6665 12.2094 36.6665C15.5753 36.6665 18.2399 35.5554 20.624 33.1943C23.0082 30.8332 24.1301 28.0554 24.1301 24.861C24.1301 21.6665 23.0082 18.8888 20.624 16.5276C18.3801 14.1665 15.5753 13.0554 12.2094 13.0554ZM16.9777 29.7221C15.7155 30.9721 14.1728 31.6665 12.2094 31.6665C10.246 31.6665 8.70332 30.9721 7.44112 29.7221C6.17893 28.4721 5.47771 26.8054 5.47771 24.861C5.47771 22.9165 6.17893 21.2499 7.44112 19.9999C8.70332 18.7499 10.246 18.0554 12.2094 18.0554C14.1728 18.0554 15.7155 18.7499 16.9777 19.9999C18.2399 21.2499 18.9411 22.9165 18.9411 24.861C18.9411 26.8054 18.3801 28.4721 16.9777 29.7221Z"></path>
<path fill="white" d="M50.6352 13.0554C47.2693 13.0554 44.4645 14.1665 42.0803 16.5276C39.6962 18.8888 38.5742 21.6665 38.5742 24.861C38.5742 28.0554 39.6962 30.9721 42.0803 33.1943C44.4645 35.4165 47.2693 36.6665 50.6352 36.6665C54.001 36.6665 56.6657 35.5554 59.0498 33.1943C61.434 30.8332 62.5559 28.0554 62.5559 24.861C62.5559 21.6665 61.434 18.8888 59.0498 16.5276C56.8059 14.1665 54.001 13.0554 50.6352 13.0554ZM55.4035 29.7221C54.1413 30.9721 52.5986 31.6665 50.6352 31.6665C48.6718 31.6665 47.1291 30.9721 45.8669 29.7221C44.6047 28.4721 43.9035 26.8054 43.9035 24.861C43.9035 22.9165 44.6047 21.2499 45.8669 19.9999C47.1291 18.7499 48.812 18.0554 50.6352 18.0554C52.5986 18.0554 54.1413 18.7499 55.4035 19.9999C56.6657 21.2499 57.3669 22.9165 57.3669 24.861C57.3669 26.8054 56.8059 28.4721 55.4035 29.7221Z"></path>
<path fill="white" d="M17.1176 43.0554C15.8554 44.3054 14.1724 44.9999 12.209 44.9999C10.2456 44.9999 8.70293 44.3054 7.3005 43.0554C6.0383 41.8054 5.33708 40.1388 5.33708 38.0554H0.0078125C0.0078125 41.3888 1.12976 44.1665 3.51391 46.5276C6.0383 48.8888 8.84318 49.9999 12.209 49.9999C15.5749 49.9999 18.3798 48.8888 20.7639 46.5276C23.1481 44.1665 24.27 41.3888 24.27 38.0554H18.9407C19.081 40.1388 18.3798 41.6665 17.1176 43.0554Z"></path>
<path fill="white" d="M24.4088 15.6943C26.232 15.6943 27.7747 14.3054 27.7747 12.4999C27.7747 10.6943 26.232 9.30542 24.4088 9.30542C22.5857 9.30542 21.043 10.5554 21.043 12.361C21.043 14.1665 22.5857 15.6943 24.4088 15.6943Z"></path>
<path fill="white" d="M30.4414 36.6667V0H35.7707V36.6667H30.4414Z"></path>
<path fill="white" d="M100.142 36.6667H94.8125V24.0279C94.8125 20.2779 95.7942 17.5001 97.7576 15.6945C99.721 13.889 102.105 12.9167 104.91 12.9167C107.715 12.9167 109.959 13.889 112.063 15.6945C114.026 17.5001 115.008 20.2779 115.008 24.0279V36.6667H109.678V24.0279C109.678 20.139 107.855 18.0556 104.91 18.0556C101.965 18.0556 100.142 20.139 100.142 24.0279V36.6667Z"></path>
<path fill="white" d="M83.8756 13.0554H68.1683C68.589 13.7499 68.7292 14.5832 68.7292 15.5554C68.7292 16.5276 68.4487 17.361 68.1683 18.0554H76.8634L63.9609 31.6665V36.6665H83.8756V31.6665H70.9731L83.8756 18.0554V13.0554Z"></path>
</svg>
