<svg xmlns="http://www.w3.org/2000/svg" width="22" height="20" fill="none"><path fill="currentColor" d="M19.389 2.646C18.35 1.589 16.977 1 15.549 1s-2.801.589-3.84 1.646L11 3.375l-.71-.73C9.256 1.583 7.878.993 6.448 1 5.019.993 3.644 1.583 2.61 2.646a5.496 5.496 0 0 0-1.19 1.82A5.847 5.847 0 0 0 1 6.647c0 .75.143 1.493.42 2.182a5.497 5.497 0 0 0 1.191 1.82l7.828 8.11c.077.072.163.132.256.178a.77.77 0 0 0 .61 0c.093-.046.18-.106.256-.178l7.828-8.11a5.497 5.497 0 0 0 1.19-1.82c.278-.689.421-1.431.421-2.182 0-.75-.143-1.493-.42-2.18a5.497 5.497 0 0 0-1.191-1.821Zm0 3.984a4.149 4.149 0 0 1-.285 1.531c-.19.485-.469.923-.82 1.287L11 17.008l-7.275-7.56a3.883 3.883 0 0 1-.836-1.283 4.129 4.129 0 0 1 0-3.071c.194-.485.479-.922.836-1.283.732-.755 1.709-1.173 2.722-1.165 1.018-.009 2 .409 2.738 1.165l1.254 1.307c.077.072.163.132.256.178a.77.77 0 0 0 .61 0c.093-.046.18-.106.256-.178l1.262-1.307c.732-.755 1.709-1.173 2.722-1.165 1.018-.009 2 .409 2.738 1.165.355.363.637.8.83 1.285.193.484.293 1.006.292 1.534h-.016Z"></path></svg>