<svg xmlns="http://www.w3.org/2000/svg" width="20" height="20" fill="none" style="fill: none;"><g stroke="CURRENTCOLOR" stroke-linecap="round" stroke-linejoin="round" stroke-width="1.5"><path d="M2.508 9.352v3.742c0 3.741 1.5 5.241 5.242 5.241h4.492c3.741 0 5.241-1.5 5.241-5.241V9.352"></path><path d="M10 10.002c1.525 0 2.65-1.242 2.5-2.767l-.55-5.566H8.058L7.5 7.235c-.15 1.525.975 2.767 2.5 2.767Z"></path><path d="M15.258 10.002c1.684 0 2.917-1.367 2.75-3.042l-.233-2.291c-.3-2.167-1.133-3-3.317-3h-2.541L12.5 7.51c.142 1.375 1.383 2.492 2.758 2.492ZM4.7 10.002c1.375 0 2.617-1.117 2.75-2.492l.183-1.841.4-4H5.492c-2.184 0-3.017.833-3.317 3L1.95 6.96c-.167 1.675 1.067 3.042 2.75 3.042ZM10 14.169c-1.392 0-2.083.691-2.083 2.083v2.083h4.166v-2.083c0-1.392-.691-2.083-2.083-2.083Z"></path></g></svg>