<svg xmlns="http://www.w3.org/2000/svg" width="20" height="20" fill="none"><g fill="currentColor"><path d="M18.887 17.699a10.285 10.285 0 0 0-3.768-3.704 10.353 10.353 0 0 0-10.24 0 10.285 10.285 0 0 0-3.768 3.704.87.87 0 0 0 .075.962c.073.09.164.165.268.217a.881.881 0 0 0 .44.114.829.829 0 0 0 .754-.42 8.515 8.515 0 0 1 3.12-3.068 8.572 8.572 0 0 1 8.48 0 8.514 8.514 0 0 1 3.12 3.068.878.878 0 0 0 1.195.315.808.808 0 0 0 .404-.516.869.869 0 0 0-.08-.672ZM10 11.803c1.416 0 2.775-.56 3.784-1.56 1.01-1.001 1.59-2.362 1.617-3.79a5.476 5.476 0 0 0-1.582-3.854 5.375 5.375 0 0 0-3.818-1.596 5.375 5.375 0 0 0-3.819 1.596 5.476 5.476 0 0 0-1.581 3.854 5.474 5.474 0 0 0 1.616 3.79A5.374 5.374 0 0 0 10 11.802Zm-3.6-5.35c0-.964.38-1.888 1.055-2.57a3.583 3.583 0 0 1 2.546-1.063c.955 0 1.87.382 2.545 1.064a3.65 3.65 0 0 1 1.055 2.569 3.65 3.65 0 0 1-1.055 2.569 3.583 3.583 0 0 1-2.545 1.064c-.955 0-1.87-.383-2.546-1.064a3.65 3.65 0 0 1-1.054-2.57Z"></path></g></svg>