<svg xmlns="http://www.w3.org/2000/svg" width="40" height="40" viewBox="0 0 42 40" fill="none"><path fill-rule="evenodd" clip-rule="evenodd" d="M6.23742 37.6885C6.23742 37.6885 6.18492 37.626 6.16391 37.5948C5.9014 37.3032 5.65988 36.9909 5.46037 36.7826C4.37879 35.6477 3.0242 34.1691 2.22615 32.7322C4.99834 29.9834 8.16955 26.8701 12.3173 26.8181C14.533 26.7868 16.7381 27.2658 18.9433 27.4116C20.4869 27.5157 22.4295 27.3283 23.8471 28.0259C24.6977 28.4424 24.5716 29.5253 23.8891 30.0979C23.2801 30.6081 22.3665 30.6186 21.6 30.6081C20.1824 30.6081 18.7753 30.2437 17.3577 30.275C16.7696 30.2958 16.2971 30.7852 16.3181 31.3682C16.3391 31.9513 16.8326 32.4199 17.4207 32.3991C18.8173 32.3574 20.1929 32.7218 21.5894 32.7322C22.839 32.7322 24.2986 32.5448 25.2857 31.7118C27.1338 30.1396 27.1128 27.245 24.7922 26.11C23.1226 25.2979 20.8754 25.402 19.0798 25.2771C16.8221 25.1313 14.5435 24.6523 12.2753 24.6836C7.4345 24.746 3.65425 28.2862 0.44103 31.4724C0.357024 31.5557 0.29402 31.639 0.241516 31.7431C0.0420028 32.1283 0.0210014 32.17 0.0210014 32.17C0.0210014 32.17 0.178512 33.4715 0 33.0967C0.819055 34.8876 2.53067 36.8243 3.89576 38.2403C4.12678 38.4902 4.4313 38.8963 4.75682 39.2191C5.11384 39.5731 5.50237 39.8334 5.86989 39.9375C6.28992 40.0625 6.70995 40 7.11948 39.7501C7.466 39.5419 7.81252 39.0837 8.06454 38.8442C8.53707 38.3965 8.9571 38.1154 9.61865 38.105C12.9264 38.0529 16.1606 38.6152 19.4683 38.157C23.1016 37.6468 26.6928 35.8976 29.9795 34.367C32.5207 33.18 35.1984 31.9826 37.4035 30.2437C38.6111 29.2962 39.8187 27.953 39.9132 26.3391C40.0287 24.163 37.7605 22.8406 35.8494 23.1842C33.2662 23.6528 30.1685 25.6311 27.7534 26.7348C27.2178 26.9847 26.9763 27.6094 27.2283 28.1509C27.4803 28.6819 28.1104 28.9214 28.6459 28.6715C30.9246 27.6406 33.8123 25.7144 36.2379 25.2771C36.91 25.1521 37.813 25.4645 37.771 26.2246C37.7185 27.2346 36.826 27.9843 36.0699 28.5778C33.9908 30.2229 31.4601 31.3266 29.066 32.4407C25.9682 33.888 22.587 35.5748 19.1638 36.0538C15.9401 36.5015 12.7899 35.9288 9.57664 35.9809C8.31656 36.0017 7.4765 36.4494 6.57344 37.3136C6.48944 37.3865 6.35293 37.5427 6.22692 37.6781L6.23742 37.6885ZM8.56857 0.766615C8.47407 0.912386 8.42157 1.07898 8.41107 1.2664C8.32706 3.05731 8.09604 5.0044 8.49507 6.77449C9.28262 10.2105 12.1598 12.6158 15.583 13.0843C17.2842 16.2184 17.5152 19.769 17.6097 23.2883C17.6202 23.8714 18.1137 24.34 18.7123 24.3191C19.3003 24.3087 19.7728 23.8194 19.7623 23.2259C19.7413 22.3825 19.7098 21.5391 19.6468 20.7061C19.7413 20.6124 19.8253 20.5083 19.8883 20.3833C20.5919 18.8944 21.4319 17.6553 22.3875 16.5932C23.1016 17.3013 23.9206 17.9052 24.7817 18.4466C25.6532 18.9881 26.6298 19.4983 27.6694 19.644C28.6879 19.7898 29.738 19.6649 30.7146 19.3733C34.9148 18.1134 36.931 14.2401 38.6426 10.5854C39.2831 9.23178 39.8397 7.78448 40.9423 6.72243C40.9843 6.69119 41.0158 6.64954 41.0473 6.60789C41.1313 6.57665 41.2258 6.54542 41.3098 6.51418C41.8663 6.30594 42.1393 5.69161 41.9293 5.13976C41.7193 4.58791 41.0893 4.31719 40.5432 4.52544C39.3251 4.99399 38.1386 4.78575 36.868 4.61915C34.0538 4.24431 30.011 3.31762 26.7243 3.84864C24.2251 4.25472 22.1355 5.44172 21.0539 8.06561C20.6234 9.10683 20.3924 10.1793 20.2979 11.2934C20.2454 11.8765 20.6759 12.3971 21.2744 12.4492C21.8625 12.5012 22.3875 12.0743 22.44 11.4808C22.524 10.575 22.7025 9.71074 23.049 8.86735C24.0151 6.51418 26.1993 5.87903 28.5829 5.81656C31.3341 5.74367 34.3688 6.44129 36.595 6.73284C37.1095 6.80572 37.624 6.8682 38.1281 6.89943C37.582 7.78448 37.1515 8.7424 36.721 9.67951C35.2509 12.8032 33.6968 16.2496 30.116 17.3325C29.4335 17.5408 28.7089 17.6345 27.9949 17.5408C27.2598 17.4366 26.5668 17.041 25.9472 16.6453C25.2332 16.1976 24.5506 15.6978 23.9521 15.1147C25.8947 13.4904 28.2259 12.3242 30.8931 11.158C31.4391 10.9186 31.6806 10.2938 31.4391 9.75239C31.1976 9.21095 30.5676 8.97147 30.0215 9.21095C25.4327 11.2101 21.8205 13.2821 19.2373 17.1972C18.8908 15.3646 18.3342 13.5841 17.3997 11.9181C17.7777 10.627 18.0192 9.13807 17.9037 7.73241C17.7672 6.00398 17.1161 4.40049 15.6356 3.31762C14.722 2.64082 13.7034 2.21392 12.6849 1.74537C11.8553 1.37053 11.0362 0.97486 10.3537 0.308475C9.93367 -0.108015 9.25112 -0.0976025 8.83109 0.308475C8.70508 0.443835 8.61058 0.600019 8.55807 0.766615H8.56857ZM10.4587 3.00525C10.3852 4.11936 10.3537 5.24389 10.5952 6.30594C11.1412 8.71117 13.0944 10.4188 15.4465 10.8977C15.6881 9.93981 15.8456 8.88818 15.7616 7.8886C15.6776 6.77449 15.2995 5.71244 14.3545 5.01482C13.5669 4.43173 12.6744 4.07771 11.7923 3.68205C11.3408 3.4738 10.8892 3.25514 10.4587 3.01566V3.00525Z" fill="#111111"></path></svg>