<svg xmlns="http://www.w3.org/2000/svg" width="40" height="40" viewBox="0 0 40 40" fill="none"><path d="M19.0158 1.59304V0.973913C19.0158 0.438261 19.4567 0 20.0035 0C20.5503 0 20.9913 0.434783 20.9913 0.973913V1.59304C20.9913 2.1287 20.5503 2.56696 20.0035 2.56696C19.4603 2.56696 19.0158 2.13217 19.0158 1.59304ZM9.04273 4.74783C9.22618 5.06087 9.55779 5.23478 9.89645 5.23478C10.0623 5.23478 10.2316 5.19304 10.3868 5.10609C10.8595 4.83826 11.0218 4.24348 10.7466 3.77739L10.4327 3.24174C10.161 2.77565 9.55779 2.61565 9.08507 2.88696C8.61234 3.15478 8.45007 3.74957 8.72523 4.21565L9.03921 4.7513L9.04273 4.74783ZM6.78496 14.8765C7.29296 15.0713 7.86446 14.8209 8.05848 14.32C9.94937 9.49217 14.7471 6.24696 20 6.24696C25.2529 6.24696 30.0506 9.49217 31.9415 14.32C32.0932 14.7061 32.4672 14.9426 32.8623 14.9426C32.9787 14.9426 33.1022 14.9217 33.2186 14.8765C33.7266 14.6817 33.9806 14.1217 33.783 13.6209C32.7212 10.9078 30.8761 8.5913 28.449 6.91826C25.9655 5.20696 23.0445 4.30261 20.0035 4.30261C16.9626 4.30261 14.0416 5.20696 11.558 6.91826C9.13093 8.5913 7.2859 10.9078 6.22404 13.6209C6.02649 14.1217 6.28049 14.6852 6.78849 14.8765H6.78496ZM37.5013 12.5287C37.6671 12.5287 37.84 12.487 37.9952 12.3965L38.5385 12.087C39.0112 11.8191 39.1699 11.2243 38.8983 10.7583C38.6267 10.2922 38.0234 10.1357 37.5507 10.4035L37.0074 10.713C36.5347 10.9809 36.3759 11.5757 36.6476 12.0417C36.831 12.3548 37.1626 12.5287 37.5013 12.5287ZM29.6097 5.10609C29.7649 5.19304 29.9342 5.23826 30.1035 5.23826C30.4457 5.23826 30.7774 5.06435 30.9573 4.7513L31.2712 4.21565C31.5429 3.74957 31.3806 3.15478 30.9114 2.88696C30.4387 2.61913 29.8354 2.77913 29.5638 3.24174L29.2498 3.77739C28.9782 4.24348 29.1405 4.83826 29.6097 5.10609ZM18.2538 23.7739C18.6771 23.4365 18.7476 22.8278 18.4054 22.407C17.9398 21.833 17.4283 21.2765 16.8885 20.7548C12.313 16.3304 6.04765 14.6991 1.29927 16.6957C1.05938 16.7965 0.86888 16.9878 0.770102 17.2278C-1.15959 21.9478 0.618408 28.0939 5.19393 32.5183C7.94207 35.1757 11.3464 36.8765 14.7824 37.3078C14.8248 37.3148 14.8671 37.3148 14.9094 37.3148C15.3998 37.3148 15.8231 36.9565 15.8866 36.4661C15.9536 35.9339 15.5726 35.447 15.0329 35.3774C12.0202 34.9983 9.01804 33.4922 6.57682 31.1304C2.68921 27.3739 1.06996 22.2887 2.45638 18.3374C6.43571 16.8904 11.6215 18.3896 15.5091 22.1461C15.9924 22.6157 16.4511 23.113 16.8673 23.6278C17.2095 24.0452 17.8269 24.1148 18.2538 23.7774V23.7739ZM34.8096 32.5148C30.4845 36.6957 24.6531 38.3826 20.0141 36.8696C19.6225 37.6765 19.2698 38.5078 18.9593 39.3565C18.8147 39.753 18.4337 40 18.0315 40C17.9221 40 17.8093 39.9826 17.6964 39.9409C17.1848 39.76 16.9167 39.2 17.1037 38.6957C17.5023 37.6035 17.968 36.5391 18.4901 35.513C16.8956 30.8696 18.7053 25.0122 23.1115 20.7513C27.687 16.327 33.9523 14.6957 38.7007 16.6922C38.9406 16.793 39.1311 16.9843 39.2299 17.2243C41.1596 21.9478 39.3816 28.0904 34.8061 32.5148H34.8096ZM37.5471 18.3339C33.5678 16.887 28.382 18.3861 24.4944 22.1426C21.2206 25.3078 19.5555 29.4122 19.94 32.9913C21.1677 31.0817 22.6106 29.3252 24.2404 27.753L25.0094 24.2991C25.1259 23.7739 25.6515 23.4435 26.1842 23.5583C26.7169 23.673 27.052 24.1913 26.9356 24.7165L26.7381 25.6C27.9692 24.6539 29.278 23.8017 30.6574 23.0574L31.2254 20.4974C31.3418 19.9722 31.8674 19.6417 32.4001 19.7565C32.9328 19.8713 33.268 20.3896 33.1515 20.9148L32.9187 21.9548C33.2644 21.8052 33.6172 21.6591 33.97 21.52C34.478 21.3217 35.0495 21.5652 35.2506 22.0661C35.4517 22.567 35.2047 23.1304 34.6967 23.3287C33.776 23.6904 32.8799 24.0974 32.0121 24.5461C31.9909 24.5565 31.9697 24.5704 31.9486 24.5809C31.0243 25.0644 30.1318 25.6 29.2745 26.1809L31.303 26.1739C31.8463 26.1739 32.2872 26.6087 32.2908 27.1443C32.2908 27.68 31.8533 28.1183 31.3065 28.1217L26.7204 28.1391C26.4347 28.3861 26.1524 28.64 25.8773 28.8974C25.8349 28.9461 25.7891 28.9913 25.7362 29.0296C25.0941 29.6417 24.4803 30.2852 23.8982 30.9565L26.1313 30.9252C26.1313 30.9252 26.1419 30.9252 26.1454 30.9252C26.6851 30.9252 27.1226 31.353 27.1296 31.8852C27.1367 32.4209 26.7028 32.8626 26.156 32.8696L22.3495 32.9217C21.8415 33.6313 21.3652 34.3687 20.9278 35.127C24.8225 36.2435 29.7084 34.7165 33.4126 31.1339C37.3002 27.3774 38.9195 22.2922 37.533 18.3409L37.5471 18.3339ZM1.46507 12.087L2.00835 12.3965C2.16357 12.4835 2.33291 12.5287 2.50224 12.5287C2.84443 12.5287 3.17604 12.3548 3.35596 12.0417C3.6276 11.5757 3.46532 10.9809 2.99613 10.713L2.45285 10.4035C1.98013 10.1357 1.37688 10.2957 1.10524 10.7583C0.833602 11.2209 0.995879 11.8191 1.46507 12.087ZM20 9.53043C16.9449 9.53043 14.1651 11.047 12.7434 13.4887C12.4717 13.9548 12.6375 14.5496 13.1103 14.8174C13.583 15.0852 14.1862 14.9217 14.4579 14.4557C15.5268 12.6191 17.6505 11.4748 20 11.4748C22.3495 11.4748 24.4767 12.6157 25.5421 14.4557C25.7256 14.7687 26.0572 14.9461 26.3994 14.9461C26.5652 14.9461 26.7345 14.9043 26.8897 14.8174C27.3625 14.5496 27.5247 13.9548 27.2566 13.4887C25.8385 11.047 23.0586 9.53043 20.0035 9.53043H20ZM9.98818 27.4539C9.4449 27.4539 9.00393 27.8852 9.0004 28.4209C9.0004 28.9565 9.43784 29.3948 9.98112 29.3983L13.3008 29.4122C13.6782 29.8365 14.0416 30.2817 14.3838 30.7374C14.5778 30.9948 14.8741 31.1304 15.1775 31.1304C15.3821 31.1304 15.5868 31.0678 15.7631 30.9391C16.2006 30.6191 16.2923 30.0104 15.9713 29.5791C14.3485 27.4122 12.3553 25.5687 10.094 24.1252L9.37787 20.9043C9.26145 20.3791 8.73582 20.0487 8.20312 20.1635C7.67043 20.2783 7.33529 20.7965 7.45171 21.3217L7.79037 22.8383C7.26473 22.5843 6.72499 22.3478 6.17818 22.1357C5.67371 21.9374 5.09868 22.1809 4.8976 22.6817C4.69652 23.1826 4.94346 23.7461 5.45146 23.9443C6.57329 24.3826 7.64573 24.9148 8.66173 25.5339C8.68643 25.5513 8.71112 25.5652 8.73582 25.5791C9.64246 26.1357 10.4997 26.7617 11.3076 27.4539L9.98818 27.447C9.98818 27.447 9.98818 27.447 9.98465 27.447L9.98818 27.4539Z" fill="#111111"></path></svg>