<svg xmlns="http://www.w3.org/2000/svg" width="40" height="40" viewBox="0 0 28 40" fill="none"><path d="M11.8766 31.2582C12.5045 31.755 13.2472 32 13.9966 32C14.7461 32 15.4955 31.755 16.1167 31.2582C19.5398 28.5427 27.5 21.39 27.5 13.6044C27.5 5.8188 21.4505 0 14.0034 0C6.55626 0 0.5 6.10464 0.5 13.6112C0.5 21.1178 8.46024 28.5496 11.8766 31.265V31.2582ZM14.0034 2.15738C20.2689 2.15738 25.3665 7.29562 25.3665 13.6112C25.3665 20.4509 17.9801 27.0455 14.8001 29.5636C14.3275 29.9379 13.6725 29.9379 13.1999 29.5636C10.0266 27.0455 2.63353 20.4441 2.63353 13.6112C2.64029 7.29562 7.73781 2.15738 14.0034 2.15738Z" fill="#111111"></path><path d="M14 19C17.031 19 19.5 16.531 19.5 13.5C19.5 10.469 17.031 8 14 8C10.969 8 8.5 10.469 8.5 13.5C8.5 16.531 10.969 19 14 19ZM14 10.008C15.9259 10.008 17.4983 11.5741 17.4983 13.5063C17.4983 15.4386 15.9323 17.0046 14 17.0046C12.0677 17.0046 10.5017 15.4386 10.5017 13.5063C10.5017 11.5741 12.0677 10.008 14 10.008Z" fill="#111111"></path><path d="M22.9924 33.0497C22.3668 32.8643 21.7115 33.2129 21.5253 33.836C21.3391 34.4591 21.6892 35.1118 22.3147 35.2973C23.2456 35.5791 23.7222 35.8313 23.968 35.9945C23.2679 36.4618 21.0562 37.2555 16.9156 37.5374C14.8974 37.6709 13.1101 37.6709 11.0919 37.5374C6.9513 37.2555 4.7395 36.4692 4.03947 36.0019C4.27778 35.8387 4.76184 35.5866 5.70018 35.3047C6.32574 35.1192 6.6832 34.4665 6.48957 33.8434C6.29595 33.2203 5.6406 32.8717 5.02249 33.0572C4.15118 33.3168 1.5 34.103 1.5 35.9945C1.5 38.8206 7.40557 39.644 10.9281 39.8887C11.993 39.9629 12.9984 40 13.9963 40C14.9942 40 15.9996 39.9629 17.0719 39.8887C20.5944 39.6514 26.5 38.828 26.5 35.9945C26.5 34.103 23.8637 33.3094 22.9999 33.0572L22.9924 33.0497Z" fill="#111111"></path></svg>