<svg xmlns="http://www.w3.org/2000/svg" width="16" height="16" viewBox="0 0 16 16" fill="none"><path d="M15.9566 6.05028C16.0087 6.21336 16.0139 6.38188 15.9722 6.55583C15.9305 6.72978 15.8419 6.87656 15.7065 6.99615L12.2206 10.1925L13.2523 14.9219C13.2835 15.0958 13.2679 15.2643 13.2054 15.4274C13.1533 15.5905 13.0595 15.7264 12.924 15.8351C12.7781 15.9438 12.6218 15.9982 12.4551 15.9982C12.2883 16.0091 12.132 15.971 11.9861 15.884L8 13.3889L4.0139 15.884C3.95137 15.9166 3.87842 15.9438 3.79505 15.9656C3.7221 15.9873 3.64915 15.9982 3.57621 15.9982C3.49284 15.9982 3.40426 15.9819 3.31046 15.9493C3.2271 15.9275 3.14894 15.8895 3.07599 15.8351C2.94051 15.7264 2.84151 15.5905 2.77898 15.4274C2.72688 15.2643 2.71646 15.0958 2.74772 14.9219L3.77942 10.1925L0.29353 6.99615C0.158055 6.87656 0.0694746 6.72978 0.0277898 6.55583C-0.0138949 6.38188 -0.00868433 6.21336 0.0434216 6.05028C0.0955276 5.87633 0.184108 5.73499 0.309162 5.62627C0.444637 5.51755 0.595745 5.45232 0.762484 5.43058L5.38949 5.00657L7.21841 0.538165C7.28094 0.375085 7.38515 0.244621 7.53105 0.146772C7.67694 0.0489241 7.83326 0 8 0C8.16674 0 8.32306 0.0489241 8.46895 0.146772C8.61485 0.244621 8.71906 0.375085 8.78159 0.538165L10.6105 5.00657L15.2375 5.43058C15.4043 5.45232 15.5502 5.51755 15.6752 5.62627C15.8107 5.73499 15.9045 5.87633 15.9566 6.05028Z" fill="#F3FC81"></path></svg>