<svg xmlns="http://www.w3.org/2000/svg" width="30" height="30" viewBox="0 0 30 30" fill="none"><path d="m10.477 15 3.012 3.025 6.038-6.05" stroke="#e14a5c" stroke-width="2" stroke-linecap="round" stroke-linejoin="round"></path><path d="M13.44 3.063c.862-.738 2.274-.738 3.15 0l1.974 1.7c.375.325 1.075.587 1.575.587h2.125a2.42 2.42 0 0 1 2.413 2.413v2.125c0 .487.262 1.2.587 1.575l1.7 1.975c.738.862.738 2.275 0 3.15l-1.7 1.975c-.325.375-.587 1.075-.587 1.575v2.125a2.42 2.42 0 0 1-2.413 2.412H20.14c-.487 0-1.2.263-1.575.588l-1.975 1.7c-.862.737-2.275.737-3.15 0l-1.975-1.7c-.375-.325-1.075-.588-1.575-.588H7.727a2.42 2.42 0 0 1-2.413-2.412v-2.138c0-.487-.262-1.187-.575-1.562l-1.687-1.988c-.725-.862-.725-2.262 0-3.125l1.687-1.987c.313-.375.575-1.075.575-1.563V7.75a2.42 2.42 0 0 1 2.413-2.412h2.162c.488 0 1.2-.263 1.575-.588z" stroke="#111" stroke-width="2" stroke-linecap="round" stroke-linejoin="round"></path></svg>