<svg xmlns="http://www.w3.org/2000/svg" width="26" height="26" viewBox="0 0 26 26" fill="none" style="fill: none;"><path d="M9.07837 13L11.6892 15.6216L16.9217 10.3783" stroke="currentColor" stroke-width="1.8" stroke-linecap="round" stroke-linejoin="round"></path><path d="M11.6459 2.65418C12.3934 2.01501 13.6175 2.01501 14.3759 2.65418L16.0875 4.12751C16.4125 4.40918 17.0192 4.63668 17.4525 4.63668H19.2942C20.4425 4.63668 21.385 5.57918 21.385 6.72751V8.56918C21.385 8.99168 21.6125 9.60918 21.8942 9.93418L23.3675 11.6458C24.0067 12.3933 24.0067 13.6175 23.3675 14.3758L21.8942 16.0875C21.6125 16.4125 21.385 17.0192 21.385 17.4525V19.2942C21.385 20.4425 20.4425 21.385 19.2942 21.385H17.4525C17.03 21.385 16.4125 21.6125 16.0875 21.8942L14.3759 23.3675C13.6284 24.0067 12.4042 24.0067 11.6459 23.3675L9.9342 21.8942C9.6092 21.6125 9.00254 21.385 8.5692 21.385H6.69504C5.5467 21.385 4.6042 20.4425 4.6042 19.2942V17.4417C4.6042 17.0192 4.3767 16.4125 4.10587 16.0875L2.64337 14.365C2.01504 13.6175 2.01504 12.4042 2.64337 11.6567L4.10587 9.93418C4.3767 9.60918 4.6042 9.00251 4.6042 8.58001V6.71668C4.6042 5.56835 5.5467 4.62585 6.69504 4.62585H8.5692C8.9917 4.62585 9.6092 4.39835 9.9342 4.11668L11.6459 2.65418Z" stroke="currentColor" stroke-width="1.8" stroke-linecap="round" stroke-linejoin="round"></path></svg>