<svg xmlns="http://www.w3.org/2000/svg" width="40" height="40" viewBox="0 0 40 40" fill="none"><g clip-path="url(#a)"><path d="M39.197 20c0 10.588-8.613 19.2-19.2 19.2S.797 30.589.797 20a1.2 1.2 0 1 1 2.4 0c0 9.264 7.536 16.8 16.8 16.8s16.8-7.536 16.8-16.8c0-9.263-7.536-16.8-16.8-16.8A16.63 16.63 0 0 0 8.268 8h4.529a1.2 1.2 0 1 1 0 2.4h-7.2a1.2 1.2 0 0 1-1.2-1.2V2a1.2 1.2 0 1 1 2.4 0v4.094a19 19 0 0 1 13.2-5.293c10.587 0 19.2 8.613 19.2 19.2m-8.4-4.8V26c0 .501-.31.949-.778 1.125l-9.6 3.6c-.272.1-.572.1-.844 0l-9.6-3.6A1.2 1.2 0 0 1 9.197 26V15.2c0-.5.31-.948.778-1.124l9.6-3.6c.272-.101.571-.101.844 0l9.6 3.6a1.2 1.2 0 0 1 .778 1.124m-16.983 0 6.183 2.319L26.18 15.2l-6.183-2.318zm-2.217 9.969 7.2 2.7v-8.236l-7.2-2.7zm16.8 0v-8.236l-7.2 2.7v8.236z" fill="currentColor"></path></g><defs><clipPath id="a"><path fill="currentColor" d="M0 0h40v40H0z"></path></clipPath></defs></svg>