<svg xmlns="http://www.w3.org/2000/svg" width="100" height="32" viewBox="0 0 100 32"><path fill="none" stroke-linejoin="round" stroke-linecap="round" stroke-miterlimit="4" stroke-width="6.25" stroke="#000" d="M32.813 12.875l9.375 9.375 18.75-18.75"></path><path fill="none" stroke-linejoin="round" stroke-linecap="round" stroke-miterlimit="4" stroke-width="6.25" stroke="#000" d="M41.875-24.625c2.813-2.188 7.188-2.188 10 0l6.25 5.625q1.875 1.563 4.688 1.875h6.875c4.063 0 7.5 3.125 7.5 7.5v6.25q0 3.125 1.875 5.313l5.313 6.25c2.188 2.5 2.188 6.875 0 9.375l-5.313 6.25q-1.875 2.188-1.875 5v6.875c0 4.063-3.438 7.5-7.5 7.5h-7.188c-1.25 0-3.75 0.625-4.688 1.875l-6.25 5.313c-2.813 2.188-7.188 2.188-10 0l-6.25-5.313q-1.875-1.875-4.688-1.875h-6.563c-4.142 0-7.5-3.358-7.5-7.5v0-7.188q0-2.813-1.875-4.688l-5-6.25c-2.5-2.813-2.5-7.188 0-10l5-6.25q1.875-1.875 1.875-4.688v-6.25c0-4.375 3.438-7.813 7.5-7.813h7.188q2.813 0 5-1.563z"></path></svg>