<svg xmlns="http://www.w3.org/2000/svg" width="26" height="26" viewBox="0 0 26 26" fill="none" style="fill: none;"><path d="M18.4157 14.3433V10.3784L8.13489 4.44165" stroke="currentColor" stroke-width="1.6" stroke-linecap="round" stroke-linejoin="round"></path><path d="M3.4342 8.06006L13 13.5959L22.5008 8.09252" stroke="currentColor" stroke-width="1.6" stroke-linecap="round" stroke-linejoin="round"></path><path d="M13 23.4108V13.585" stroke="currentColor" stroke-width="1.6" stroke-linecap="round" stroke-linejoin="round"></path><path d="M10.7575 2.68663L4.97255 5.90416C3.66171 6.62999 2.58923 8.44997 2.58923 9.94497V16.0658C2.58923 17.5608 3.66171 19.3808 4.97255 20.1066L10.7575 23.3242C11.9925 24.0067 14.0184 24.0067 15.2534 23.3242L21.0384 20.1066C22.3492 19.3808 23.4217 17.5608 23.4217 16.0658V9.94497C23.4217 8.44997 22.3492 6.62999 21.0384 5.90416L15.2534 2.68663C14.0075 1.99329 11.9925 1.99329 10.7575 2.68663Z" stroke="currentColor" stroke-width="1.6" stroke-linecap="round" stroke-linejoin="round"></path></svg>