<svg xmlns="http://www.w3.org/2000/svg" viewBox="0 0 32 32" width="32" fill="none"><path d="M20.249 15.55v-4.575L8.386 4.125" stroke="currentColor" stroke-width="2" stroke-linecap="round" stroke-linejoin="round"></path><path d="M2.962 8.3 14 14.687l10.962-6.35M14 26.013V14.675" stroke="currentColor" stroke-width="2" stroke-linecap="round" stroke-linejoin="round"></path><path d="M11.412 2.1 4.737 5.813c-1.512.837-2.75 2.937-2.75 4.662v7.063c0 1.724 1.238 3.825 2.75 4.662l6.675 3.713c1.425.787 3.763.787 5.188 0l6.675-3.713c1.512-.837 2.75-2.938 2.75-4.662v-7.063c0-1.725-1.238-3.825-2.75-4.662L16.6 2.1c-1.438-.8-3.763-.8-5.188 0Z" stroke="currentColor" stroke-width="2" stroke-linecap="round" stroke-linejoin="round"></path></svg>