<svg xmlns="http://www.w3.org/2000/svg" width="100" height="32" viewBox="0 0 100 32"><path fill="none" stroke-linejoin="round" stroke-linecap="round" stroke-miterlimit="4" stroke-width="6.25" stroke="#000" d="M63.278 14.594v-14.297l-37.072-21.406"></path><path fill="none" stroke-linejoin="round" stroke-linecap="round" stroke-miterlimit="4" stroke-width="6.25" stroke="#000" d="M9.256-8.063l34.494 19.959 34.256-19.844M43.75 47.291v-35.431"></path><path fill="none" stroke-linejoin="round" stroke-linecap="round" stroke-miterlimit="4" stroke-width="6.25" stroke="#000" d="M35.663-27.438l-20.859 11.603c-4.725 2.616-8.594 9.178-8.594 14.569v22.072c0 5.387 3.869 11.953 8.594 14.569l20.859 11.603c4.453 2.459 11.759 2.459 16.212 0l20.859-11.603c4.725-2.616 8.594-9.181 8.594-14.569v-22.072c0-5.391-3.869-11.953-8.594-14.569l-20.859-11.603c-4.494-2.5-11.759-2.5-16.212 0z"></path></svg>