<svg xmlns="http://www.w3.org/2000/svg" width="13" height="12" viewBox="0 0 13 12" fill="none"><path d="M12.5485 8.9608C10.8373 8.6792 10.0661 6.9264 10.0349 6.852C10.0325 6.8472 10.0309 6.8424 10.0277 6.8376C9.9405 6.66 9.9197 6.5136 9.9677 6.4024C10.0613 6.1832 10.4197 6.0696 10.6565 5.9944C10.7253 5.9728 10.7901 5.952 10.8437 5.9312C11.0773 5.8392 11.2437 5.7392 11.3541 5.6264C11.4853 5.4912 11.5109 5.3616 11.5093 5.2776C11.5053 5.0728 11.3485 4.8904 11.0981 4.8016C11.0141 4.7672 10.9173 4.7488 10.8197 4.7488C10.7533 4.7488 10.6541 4.7576 10.5605 4.8016C10.3605 4.8952 10.1813 4.9464 10.0269 4.9536C9.9453 4.9496 9.8877 4.932 9.8501 4.9152C9.8549 4.8352 9.8597 4.7528 9.8653 4.668L9.8677 4.6312C9.9229 3.7648 9.9909 2.6872 9.7045 2.0472C9.5085 1.6088 9.2453 1.232 8.9213 0.9264C8.6501 0.6704 8.3349 0.4624 7.9845 0.3088C7.3757 0.04 6.8077 0 6.5229 0H6.5221C6.5109 0 6.5005 0 6.4909 0C6.4117 0.0008 6.2829 0.00239999 6.2709 0.00239999C5.9869 0.00239999 5.4181 0.0424 4.8077 0.3112C4.4581 0.4648 4.1445 0.672 3.8741 0.928C3.5517 1.2336 3.2893 1.6096 3.0941 2.0464C2.8077 2.6856 2.8757 3.7632 2.9301 4.6288V4.6304C2.9357 4.7232 2.9421 4.82 2.9477 4.9144C2.9061 4.9328 2.8381 4.9536 2.7381 4.9536C2.5765 4.9536 2.3845 4.9024 2.1677 4.8008C2.1037 4.7712 2.0309 4.756 1.9509 4.756C1.8221 4.756 1.6853 4.7936 1.5677 4.8632C1.4189 4.9504 1.3229 5.0728 1.2965 5.2096C1.2797 5.2992 1.2805 5.4776 1.4789 5.6584C1.5885 5.7576 1.7485 5.8496 1.9557 5.9312C2.0101 5.9528 2.0749 5.9728 2.1429 5.9944C2.3797 6.0696 2.7389 6.1832 2.8325 6.4024C2.8797 6.5136 2.8589 6.66 2.7717 6.8376C2.7693 6.8424 2.7669 6.8472 2.7653 6.852C2.7429 6.9032 2.5389 7.3632 2.1205 7.8488C1.8829 8.1248 1.6213 8.356 1.3429 8.5352C1.0029 8.7544 0.635701 8.8968 0.250901 8.96C0.0997013 8.9848 -0.00829873 9.1192 0.000501267 9.272C0.00290127 9.316 0.0133013 9.36 0.0317013 9.4024V9.4032C0.0933013 9.5464 0.234901 9.6672 0.465301 9.7736C0.746901 9.904 1.1677 10.0136 1.7173 10.0992C1.7453 10.152 1.7741 10.284 1.7941 10.3744C1.8149 10.4704 1.8365 10.5696 1.8677 10.6744C1.9013 10.788 1.9877 10.924 2.2109 10.924C2.2957 10.924 2.3925 10.9048 2.5053 10.8832C2.6701 10.8512 2.8957 10.8072 3.1765 10.8072C3.3325 10.8072 3.4941 10.8208 3.6565 10.848C3.9701 10.9 4.2405 11.0904 4.5533 11.3112C5.0109 11.6344 5.5293 12 6.3213 12C6.3429 12 6.3645 11.9992 6.3861 11.9976C6.4117 11.9992 6.4445 12 6.4781 12C7.2701 12 7.7885 11.6344 8.2461 11.312L8.2469 11.3112C8.5597 11.0912 8.8301 10.9008 9.1437 10.8488C9.3061 10.8216 9.4677 10.808 9.6237 10.808C9.8925 10.808 10.1053 10.8424 10.2949 10.8792C10.4189 10.9032 10.5149 10.9152 10.5893 10.9152H10.5965H10.6037C10.7669 10.9152 10.8869 10.8256 10.9325 10.6696C10.9629 10.5664 10.9845 10.4704 11.0061 10.372C11.0245 10.2872 11.0549 10.1512 11.0821 10.0984C11.6317 10.012 12.0525 9.9032 12.3341 9.7728C12.5637 9.6664 12.7053 9.5456 12.7669 9.4032C12.7853 9.3608 12.7965 9.3168 12.7989 9.2712C12.8077 9.12 12.6997 8.9848 12.5485 8.9608Z" fill="currentColor"></path></svg>