<svg xmlns="http://www.w3.org/2000/svg" width="53" height="32" viewBox="0 0 53 32"><path fill="none" stroke-linejoin="round" stroke-linecap="round" stroke-miterlimit="4" stroke-width="3.2" stroke="currentColor" d="M27.608 20.572c2.525 0 4.571-2.047 4.571-4.571s-2.047-4.571-4.571-4.571c-2.525 0-4.572 2.047-4.572 4.571s2.047 4.571 4.572 4.571z"></path><path fill="none" stroke-linejoin="round" stroke-linecap="round" stroke-miterlimit="4" stroke-width="3.2" stroke="currentColor" d="M45.891 29.714c2.88-3.817 4.571-8.571 4.571-13.714s-1.691-9.897-4.571-13.714"></path><path fill="none" stroke-linejoin="round" stroke-linecap="round" stroke-miterlimit="4" stroke-width="3.2" stroke="currentColor" d="M9.321 2.286c-2.88 3.817-4.571 8.571-4.571 13.714s1.691 9.897 4.571 13.714"></path><path fill="none" stroke-linejoin="round" stroke-linecap="round" stroke-miterlimit="4" stroke-width="3.2" stroke="currentColor" d="M38.578 24.229c1.714-2.286 2.743-5.143 2.743-8.229s-1.029-5.943-2.743-8.229"></path><path fill="none" stroke-linejoin="round" stroke-linecap="round" stroke-miterlimit="4" stroke-width="3.2" stroke="currentColor" d="M16.634 7.771c-1.714 2.286-2.743 5.143-2.743 8.229s1.029 5.943 2.743 8.229"></path></svg>