<svg xmlns="http://www.w3.org/2000/svg" width="32" height="32" viewBox="0 0 32 32"><path fill="none" stroke-linejoin="round" stroke-linecap="round" stroke-miterlimit="4" stroke-width="1.6" stroke="#000" d="M18.841 15.12c0.52-2.187-1.387-4.093-3.573-3.573-1.027 0.253-1.867 1.093-2.12 2.12-0.52 2.187 1.387 4.093 3.573 3.573 1.040-0.253 1.88-1.093 2.12-2.12z"></path><path fill="none" stroke-linejoin="round" stroke-linecap="round" stroke-miterlimit="4" stroke-width="1.6" stroke="#000" d="M24.013 22.92c2.28-2.133 3.707-5.16 3.707-8.533 0-6.48-5.253-11.72-11.72-11.72s-11.72 5.253-11.72 11.72c0 3.387 1.44 6.44 3.747 8.573"></path><path fill="none" stroke-linejoin="round" stroke-linecap="round" stroke-miterlimit="4" stroke-width="1.6" stroke="#000" d="M10.666 19.4c-1.227-1.307-1.987-3.067-1.987-5.013 0-4.040 3.28-7.32 7.32-7.32s7.32 3.28 7.32 7.32c0 1.947-0.76 3.693-1.987 5.013"></path><path fill="none" stroke-linejoin="round" stroke-linecap="round" stroke-miterlimit="4" stroke-width="1.6" stroke="#000" d="M13.733 22.213l-1.92 2.387c-1.52 1.907-0.173 4.72 2.267 4.72h3.827c2.44 0 3.8-2.827 2.267-4.72l-1.92-2.387c-1.147-1.453-3.36-1.453-4.52 0z"></path></svg>