<svg xmlns="http://www.w3.org/2000/svg" width="32" height="32" viewBox="0 0 32 32"><path fill="none" stroke-linejoin="round" stroke-linecap="round" stroke-miterlimit="4" stroke-width="1.6" stroke="#000" d="M12.799 26.667h6.4c5.333 0 7.467-2.133 7.467-7.467v-6.4c0-5.333-2.133-7.467-7.467-7.467h-6.4c-5.333 0-7.467 2.133-7.467 7.467v6.4c0 5.333 2.133 7.467 7.467 7.467z"></path><path fill="none" stroke-linejoin="round" stroke-linecap="round" stroke-miterlimit="4" stroke-width="1.6" stroke="#000" d="M13.999 22.667h4c3.333 0 4.667-1.333 4.667-4.667v-4c0-3.333-1.333-4.667-4.667-4.667h-4c-3.333 0-4.667 1.333-4.667 4.667v4c0 3.333 1.333 4.667 4.667 4.667z"></path><path fill="none" stroke-linejoin="round" stroke-linecap="round" stroke-miterlimit="4" stroke-width="1.6" stroke="#000" d="M10.68 5.333v-2.667"></path><path fill="none" stroke-linejoin="round" stroke-linecap="round" stroke-miterlimit="4" stroke-width="1.6" stroke="#000" d="M16 5.333v-2.667"></path><path fill="none" stroke-linejoin="round" stroke-linecap="round" stroke-miterlimit="4" stroke-width="1.6" stroke="#000" d="M21.333 5.333v-2.667"></path><path fill="none" stroke-linejoin="round" stroke-linecap="round" stroke-miterlimit="4" stroke-width="1.6" stroke="#000" d="M26.667 10.667h2.667"></path><path fill="none" stroke-linejoin="round" stroke-linecap="round" stroke-miterlimit="4" stroke-width="1.6" stroke="#000" d="M26.667 16h2.667"></path><path fill="none" stroke-linejoin="round" stroke-linecap="round" stroke-miterlimit="4" stroke-width="1.6" stroke="#000" d="M26.667 21.333h2.667"></path><path fill="none" stroke-linejoin="round" stroke-linecap="round" stroke-miterlimit="4" stroke-width="1.6" stroke="#000" d="M21.333 26.667v2.667"></path><path fill="none" stroke-linejoin="round" stroke-linecap="round" stroke-miterlimit="4" stroke-width="1.6" stroke="#000" d="M16.014 26.667v2.667"></path><path fill="none" stroke-linejoin="round" stroke-linecap="round" stroke-miterlimit="4" stroke-width="1.6" stroke="#000" d="M10.68 26.667v2.667"></path><path fill="none" stroke-linejoin="round" stroke-linecap="round" stroke-miterlimit="4" stroke-width="1.6" stroke="#000" d="M2.667 10.667h2.667"></path><path fill="none" stroke-linejoin="round" stroke-linecap="round" stroke-miterlimit="4" stroke-width="1.6" stroke="#000" d="M2.667 16h2.667"></path><path fill="none" stroke-linejoin="round" stroke-linecap="round" stroke-miterlimit="4" stroke-width="1.6" stroke="#000" d="M2.667 21.333h2.667"></path><path fill="none" stroke-linejoin="round" stroke-linecap="round" stroke-miterlimit="4" stroke-width="1.6" stroke="#000" d="M16 12.933l-1.253 2.187c-0.28 0.48-0.053 0.88 0.507 0.88h1.493c0.56 0 0.787 0.4 0.507 0.88l-1.253 2.187"></path></svg>