<svg xmlns="http://www.w3.org/2000/svg" width="32" height="32" viewBox="0 0 32 32"><path d="M23.589 5.496c-5.106-2.714-10.073-2.715-15.18 0-0.121 0.064-0.251 0.095-0.378 0.095-0.289 0-0.568-0.155-0.713-0.428-0.21-0.393-0.060-0.882 0.333-1.091 5.541-2.946 11.159-2.945 16.697 0 0.393 0.209 0.543 0.698 0.333 1.091s-0.697 0.543-1.092 0.334z"></path><path d="M16.68 5.737c5.034 0.154 9.25 2.443 11.276 6.123 0.215 0.39 0.072 0.881-0.318 1.096-0.124 0.068-0.257 0.1-0.389 0.1-0.284 0-0.56-0.151-0.708-0.418-1.722-3.128-5.52-5.154-9.911-5.288-4.745-0.14-9.022 1.899-11.196 5.331-0.239 0.376-0.738 0.49-1.114 0.25-0.377-0.238-0.489-0.737-0.25-1.114 2.476-3.912 7.327-6.239 12.608-6.080z"></path><path d="M12.020 9.263c5.225-1.735 11.265 0.684 13.749 5.508 2.43 4.715 0.128 10.454 0.030 10.696-0.169 0.413-0.638 0.608-1.052 0.441-0.412-0.168-0.61-0.64-0.442-1.052 0.021-0.053 2.114-5.3 0.030-9.346-2.13-4.136-7.318-6.207-11.806-4.715-2.909 0.966-5.495 3.505-6.291 6.174-0.292 0.982-0.455 2.386 0.431 3.503 0.668 0.842 1.547 1.238 2.472 1.116 1.316-0.175 2.563-1.347 3.334-3.136 0.91-2.111 2.22-2.687 3.16-2.799 1.75-0.207 3.354 1.019 4.010 1.894 0.788 1.051 0.955 2.974 0.425 4.897-0.53 1.92-2.207 5.465-7.488 7.632-0.101 0.041-0.204 0.061-0.307 0.061-0.318-0-0.619-0.189-0.746-0.501-0.169-0.412 0.028-0.884 0.44-1.053 4.645-1.905 6.095-4.933 6.546-6.568 0.485-1.763 0.17-3.059-0.16-3.499-0.446-0.595-1.542-1.375-2.528-1.26-0.753 0.090-1.382 0.707-1.869 1.835-0.998 2.315-2.72 3.847-4.604 4.097-1.487 0.195-2.927-0.427-3.948-1.712-1.028-1.296-1.282-3.060-0.713-4.967 0.951-3.194 3.896-6.106 7.328-7.246z"></path><path d="M8.105 26.33c6.32-1.657 7.439-6.502 7.485-6.716 0.091-0.435 0.523-0.716 0.954-0.624 0.437 0.090 0.716 0.517 0.627 0.954-0.051 0.245-1.329 6.026-8.656 7.947-0.069 0.018-0.138 0.027-0.206 0.027-0.358 0-0.685-0.24-0.78-0.603-0.113-0.431 0.145-0.872 0.576-0.985z"></path><path d="M21.458 17.405c-0.977-2.517-3.068-4.080-5.457-4.080-4.961 0-6.246 5.521-6.298 5.755-0.096 0.435-0.528 0.711-0.961 0.614-0.435-0.096-0.71-0.525-0.615-0.96 0.53-2.429 2.859-7.023 7.875-7.023 3.070 0 5.737 1.958 6.961 5.109 1.273 3.276 1.009 8.263-3.55 12.433-0.154 0.142-0.35 0.212-0.545 0.212-0.218 0-0.437-0.088-0.595-0.262-0.301-0.329-0.278-0.839 0.050-1.14 3.957-3.621 4.214-7.88 3.134-10.658z"></path></svg>