<svg xmlns="http://www.w3.org/2000/svg" width="32" height="32" viewBox="0 0 32 32"><path fill="none" stroke-linejoin="round" stroke-linecap="round" stroke-miterlimit="4" stroke-width="1.6" stroke="#000" d="M21.334 8.4v-0.4c0-2.947-2.387-5.333-5.333-5.333s-5.333 2.387-5.333 5.333v6.667"></path><path fill="none" stroke-linejoin="round" stroke-linecap="round" stroke-miterlimit="4" stroke-width="1.6" stroke="#000" d="M12.053 18.92c0.973 1.080 2.387 1.747 3.947 1.747 2.947 0 5.333-2.387 5.333-5.333v-0.667"></path><path fill="none" stroke-linejoin="round" stroke-linecap="round" stroke-miterlimit="4" stroke-width="1.6" stroke="#000" d="M9.041 22.6c1.827 1.693 4.267 2.733 6.96 2.733 5.627 0 10.2-4.573 10.2-10.2v-2.267"></path><path fill="none" stroke-linejoin="round" stroke-linecap="round" stroke-miterlimit="4" stroke-width="1.6" stroke="#000" d="M5.8 12.867v2.267c0 1.413 0.28 2.747 0.8 3.973"></path><path fill="none" stroke-linejoin="round" stroke-linecap="round" stroke-miterlimit="4" stroke-width="1.6" stroke="#000" d="M26.761 3.787l-21.52 21.533"></path><path fill="none" stroke-linejoin="round" stroke-linecap="round" stroke-miterlimit="4" stroke-width="1.6" stroke="#000" d="M14.667 4v4"></path><path fill="none" stroke-linejoin="round" stroke-linecap="round" stroke-miterlimit="4" stroke-width="1.6" stroke="#000" d="M16 25.333v4"></path></svg>