<svg xmlns="http://www.w3.org/2000/svg" viewBox="0 0 32 32" width="32" fill="none"><path d="M22.475 13.488v5c0 .325-.013.637-.05.937-.288 3.375-2.275 5.05-5.938 5.05h-.5c-.312 0-.612.15-.8.4l-1.5 2c-.662.887-1.737.887-2.4 0l-1.5-2c-.162-.212-.525-.4-.8-.4h-.5c-3.987 0-5.987-.988-5.987-5.988v-5c0-3.662 1.688-5.65 5.05-5.937.3-.037.613-.05.938-.05h8c3.987 0 5.987 2 5.987 5.988Z" stroke="currentColor" stroke-width="2" stroke-miterlimit="10" stroke-linecap="round" stroke-linejoin="round"></path><path d="M27.475 8.488v5c0 3.675-1.688 5.65-5.05 5.937.037-.3.05-.613.05-.938v-5c0-3.987-2-5.987-5.988-5.987h-8c-.325 0-.637.013-.937.05.287-3.362 2.275-5.05 5.937-5.05h8c3.988 0 5.988 2 5.988 5.988Z" stroke="currentColor" stroke-width="2" stroke-miterlimit="10" stroke-linecap="round" stroke-linejoin="round"></path><path d="M16.87 16.563h.01M12.494 16.563h.012M8.12 16.563h.01" stroke="currentColor" stroke-width="2.5" stroke-linecap="round" stroke-linejoin="round"></path></svg>