<svg xmlns="http://www.w3.org/2000/svg" width="26" height="26" viewBox="0 0 26 26" fill="none" style="fill: none;"><path d="M19.4784 11.6892V16.0225C19.4784 16.3042 19.4676 16.575 19.4351 16.835C19.1859 19.76 17.4634 21.2117 14.2892 21.2117H13.8559C13.5851 21.2117 13.3251 21.3417 13.1626 21.5583L11.8626 23.2917C11.2884 24.0608 10.3567 24.0608 9.78258 23.2917L8.48257 21.5583C8.34173 21.3742 8.02758 21.2117 7.78925 21.2117H7.35592C3.90009 21.2117 2.16675 20.3558 2.16675 16.0225V11.6892C2.16675 8.51501 3.62926 6.79251 6.54342 6.54334C6.80342 6.51084 7.07426 6.5 7.35592 6.5H14.2892C17.7451 6.5 19.4784 8.23334 19.4784 11.6892Z" stroke="currentColor" stroke-width="1.6" stroke-miterlimit="10" stroke-linecap="round" stroke-linejoin="round"></path><path d="M23.8118 7.3558V11.6891C23.8118 14.8741 22.3493 16.5858 19.4351 16.835C19.4676 16.575 19.4785 16.3041 19.4785 16.0225V11.6891C19.4785 8.2333 17.7451 6.49996 14.2893 6.49996H7.35596C7.07429 6.49996 6.80346 6.5108 6.54346 6.5433C6.79262 3.62914 8.51512 2.16663 11.6893 2.16663H18.6226C22.0784 2.16663 23.8118 3.89997 23.8118 7.3558Z" stroke="currentColor" stroke-width="1.6" stroke-miterlimit="10" stroke-linecap="round" stroke-linejoin="round"></path><path d="M14.62 14.3542H14.6298" stroke="currentColor" stroke-width="2.1" stroke-linecap="round" stroke-linejoin="round"></path><path d="M10.8285 14.3542H10.8383" stroke="currentColor" stroke-width="2.1" stroke-linecap="round" stroke-linejoin="round"></path><path d="M7.03679 14.3542H7.04654" stroke="currentColor" stroke-width="2.1" stroke-linecap="round" stroke-linejoin="round"></path></svg>