<svg xmlns="http://www.w3.org/2000/svg" width="30" height="30" viewBox="0 0 30 30" fill="none"><path d="M22.475 13.488v5c0 .325-.013.637-.05.937-.288 3.375-2.275 5.05-5.937 5.05h-.5c-.313 0-.613.15-.8.4l-1.5 2c-.663.887-1.738.887-2.4 0l-1.5-2c-.163-.212-.526-.4-.8-.4h-.5c-3.988 0-5.988-.988-5.988-5.988v-5c0-3.662 1.688-5.65 5.05-5.937.3-.037.613-.05.938-.05h8c3.987 0 5.987 2 5.987 5.988" stroke="#111" stroke-width="2" stroke-miterlimit="10" stroke-linecap="round" stroke-linejoin="round"></path><path d="M27.476 8.488v5c0 3.675-1.688 5.65-5.05 5.937.037-.3.05-.613.05-.937v-5c0-3.988-2-5.988-5.988-5.988h-8c-.325 0-.637.013-.937.05.287-3.362 2.275-5.05 5.937-5.05h8c3.988 0 5.988 2 5.988 5.988" stroke="#111" stroke-width="2" stroke-miterlimit="10" stroke-linecap="round" stroke-linejoin="round"></path><path d="M16.87 16.563h.01m-4.386 0h.012m-4.386 0h.01" stroke="#e14a5c" stroke-width="2.5" stroke-linecap="round" stroke-linejoin="round"></path></svg>