<svg xmlns="http://www.w3.org/2000/svg" width="11" height="12" viewBox="0 0 11 12" fill="none"><path d="M3.98864 12C2.93078 12 1.91626 11.5966 1.16824 10.8785C0.42023 10.1604 0 9.18645 0 8.17091C0 7.15537 0.42023 6.18143 1.16824 5.46333C1.91626 4.74524 2.93078 4.34182 3.98864 4.34182H4.9625V6.21055H3.98864C3.58408 6.21055 3.18862 6.32571 2.85224 6.54148C2.51587 6.75725 2.2537 7.06392 2.09888 7.42273C1.94407 7.78154 1.90356 8.17636 1.98248 8.55727C2.06141 8.93818 2.25622 9.28806 2.54228 9.56268C2.82834 9.8373 3.19281 10.0243 3.58959 10.1001C3.98637 10.1759 4.39764 10.137 4.7714 9.98835C5.14516 9.83972 5.46461 9.58804 5.68937 9.26512C5.91413 8.9422 6.03409 8.56255 6.03409 8.17418V0H7.98068V0.933818C7.98068 1.45461 8.19619 1.95407 8.57978 2.32232C8.96338 2.69057 9.48365 2.89745 10.0261 2.89745H11V4.76291H10.0193C9.2984 4.76391 8.59097 4.57526 7.97386 4.21745V8.17091C7.97296 9.18562 7.55291 10.1586 6.80583 10.8764C6.05875 11.5942 5.04562 11.9983 3.98864 12Z" fill="currentColor"></path></svg>