<svg xmlns="http://www.w3.org/2000/svg" width="12" height="12" viewBox="0 0 12 12" fill="none"><path d="M9.60001 0H2.39999C1.07452 0 0 1.07452 0 2.39999V9.60001C0 10.9255 1.07452 12 2.39999 12H9.60001C10.9255 12 12 10.9255 12 9.60001V2.40004C12.0001 1.07452 10.9255 0 9.60001 0ZM8.39999 1.8H10.2V3.60001H8.39999V1.8ZM6 3.60006C7.32547 3.60006 8.39999 4.67458 8.39999 6.00005C8.39999 7.32552 7.32547 8.40004 6 8.40004C4.67453 8.40004 3.60001 7.32552 3.60001 6.00005C3.60001 4.67458 4.67453 3.60006 6 3.60006ZM10.8 9.60006C10.8 10.2628 10.2627 10.8001 9.60001 10.8001H2.39999C1.73725 10.8001 1.19997 10.2628 1.19997 9.60006V5.40002H2.45996C2.09964 7.35533 3.39257 9.23252 5.34789 9.59289C7.3032 9.95327 9.18039 8.66028 9.54076 6.70497C9.58361 6.47252 9.60347 6.23641 9.60001 6.00005C9.59702 5.7987 9.57696 5.59802 9.53999 5.40007H10.8V9.60006H10.8Z" fill="currentColor"></path></svg>