<svg xmlns="http://www.w3.org/2000/svg" fill="none" viewBox="0 0 82 36" height="36" width="82"><path fill="#111111" d="M62.1001 3.99995C63.0001 3.09995 64.5001 3.09995 65.4001 3.99995C66.3001 4.89995 66.3001 6.39995 65.4001 7.29995C64.5001 8.19995 63.0001 8.19995 62.1001 7.29995C61.1001 6.39995 61.1001 4.89995 62.1001 3.99995Z"></path><path fill="#111111" d="M65.5998 9.3999H61.7998V26.3999H65.5998V9.3999Z"></path><path fill="#111111" d="M8.7001 9.3999C6.3001 9.3999 4.3001 10.1999 2.6001 11.8999C0.900098 13.5999 0.100098 15.5999 0.100098 17.8999C0.100098 20.1999 0.900098 22.2999 2.6001 23.8999C4.3001 25.4999 6.3001 26.3999 8.7001 26.3999C11.1001 26.3999 13.0001 25.5999 14.7001 23.8999C16.4001 22.1999 17.2001 20.1999 17.2001 17.8999C17.2001 15.5999 16.4001 13.5999 14.7001 11.8999C13.1001 10.1999 11.1001 9.3999 8.7001 9.3999ZM12.1001 21.3999C11.2001 22.2999 10.1001 22.7999 8.7001 22.7999C7.3001 22.7999 6.2001 22.2999 5.3001 21.3999C4.4001 20.4999 3.9001 19.2999 3.9001 17.8999C3.9001 16.4999 4.4001 15.2999 5.3001 14.3999C6.2001 13.4999 7.3001 12.9999 8.7001 12.9999C10.1001 12.9999 11.2001 13.4999 12.1001 14.3999C13.0001 15.2999 13.5001 16.4999 13.5001 17.8999C13.5001 19.2999 13.1001 20.4999 12.1001 21.3999Z"></path><path fill="#111111" d="M36.1 9.3999C33.7 9.3999 31.7 10.1999 30 11.8999C28.3 13.5999 27.5 15.5999 27.5 17.8999C27.5 20.1999 28.3 22.2999 30 23.8999C31.7 25.4999 33.7 26.3999 36.1 26.3999C38.5 26.3999 40.4 25.5999 42.1 23.8999C43.8 22.1999 44.6 20.1999 44.6 17.8999C44.6 15.5999 43.8 13.5999 42.1 11.8999C40.5 10.1999 38.5 9.3999 36.1 9.3999ZM39.5 21.3999C38.6 22.2999 37.5 22.7999 36.1 22.7999C34.7 22.7999 33.6 22.2999 32.7 21.3999C31.8 20.4999 31.3 19.2999 31.3 17.8999C31.3 16.4999 31.8 15.2999 32.7 14.3999C33.6 13.4999 34.8 12.9999 36.1 12.9999C37.5 12.9999 38.6 13.4999 39.5 14.3999C40.4 15.2999 40.9 16.4999 40.9 17.8999C40.9 19.2999 40.5 20.4999 39.5 21.3999Z"></path><path fill="#111111" d="M12.2 30.9999C11.3 31.8999 10.1 32.3999 8.7 32.3999C7.3 32.3999 6.2 31.8999 5.2 30.9999C4.3 30.0999 3.8 28.8999 3.8 27.3999H0C0 29.7999 0.8 31.7999 2.5 33.4999C4.3 35.1999 6.3 35.9999 8.7 35.9999C11.1 35.9999 13.1 35.1999 14.8 33.4999C16.5 31.7999 17.3 29.7999 17.3 27.3999H13.5C13.6 28.8999 13.1 29.9999 12.2 30.9999Z"></path><path fill="#111111" d="M17.4 11.3C18.7 11.3 19.8 10.3 19.8 8.99995C19.8 7.69995 18.7 6.69995 17.4 6.69995C16.1 6.69995 15 7.59995 15 8.89995C15 10.2 16.1 11.3 17.4 11.3Z"></path><path fill="#111111" d="M21.7002 26.4V0H25.5002V26.4H21.7002Z"></path><path fill="#111111" d="M71.4001 26.4H67.6001V17.3C67.6001 14.6 68.3001 12.6 69.7001 11.3C71.1001 10 72.8001 9.30005 74.8001 9.30005C76.8001 9.30005 78.4001 10 79.9001 11.3C81.3001 12.6 82.0001 14.6 82.0001 17.3V26.4H78.2001V17.3C78.2001 14.5 76.9001 13 74.8001 13C72.7001 13 71.4001 14.5 71.4001 17.3V26.4Z"></path><path fill="#111111" d="M59.8001 9.3999H48.6001C48.9001 9.8999 49.0001 10.4999 49.0001 11.1999C49.0001 11.8999 48.8001 12.4999 48.6001 12.9999H54.8001L45.6001 22.7999V26.3999H59.8001V22.7999H50.6001L59.8001 12.9999V9.3999Z"></path></svg>