<svg xmlns="http://www.w3.org/2000/svg" width="15" height="10" viewBox="0 0 15 10" fill="none"><path d="M13.9882 1.56476C13.8236 0.952892 13.3412 0.470562 12.7294 0.305804C11.6117 0 7.14106 0 7.14106 0C7.14106 0 2.67055 0 1.55291 0.29421C0.952892 0.458793 0.458706 0.952979 0.294123 1.56476C0 2.68232 0 5 0 5C0 5 0 7.32936 0.294123 8.43524C0.45888 9.04702 0.941123 9.52935 1.55299 9.69411C2.68232 10 7.14124 10 7.14124 10C7.14124 10 11.6117 10 12.7294 9.70579C13.3413 9.54112 13.8236 9.05879 13.9884 8.44701C14.2824 7.32936 14.2824 5.01177 14.2824 5.01177C14.2824 5.01177 14.2942 2.68232 13.9882 1.56476ZM5.7177 7.14115V2.85885L9.43529 5L5.7177 7.14115Z" fill="currentColor"></path></svg>