<svg xmlns="http://www.w3.org/2000/svg" width="1200" height="500" viewBox="0 0 1200 500"><rect width="100%" height="100%" fill="#DDDDDD"/><path fill="#999999" d="M286.225 248.725h-19.83v36.35h-20.1v-100.24h39.93q17.28 0 27.2 8.81 9.91 8.81 9.91 23.2t-9.91 23.13q-9.92 8.75-27.2 8.75m-19.83-48.4v32.91h19.83q8.4 0 12.74-4.58t4.34-11.67q0-7.23-4.31-11.95-4.3-4.71-12.77-4.71zm65.96 48.26v-1.45q0-16.66 9.29-27.29 9.3-10.64 25.75-10.64 16.53 0 25.89 10.6t9.36 27.33v1.45q0 16.8-9.33 27.37-9.32 10.57-25.78 10.57-16.52 0-25.85-10.57t-9.33-27.37m20.03-1.45v1.45q0 10.19 3.58 16.35t11.57 6.16q7.78 0 11.4-6.19 3.61-6.2 3.61-16.32v-1.45q0-9.91-3.65-16.17-3.65-6.27-11.5-6.27-7.78 0-11.39 6.3-3.62 6.3-3.62 16.14m102.93 17.42q0-3.3-3.2-5.71t-11.88-4.27q-13.21-2.68-19.93-7.95-6.71-5.27-6.71-14.36 0-9.63 8.09-16.35 8.09-6.71 21.65-6.71 14.25 0 22.69 6.68 8.43 6.68 8.09 16.87l-.14.41h-19.42q0-4.48-2.85-7.3-2.86-2.82-8.37-2.82-4.89 0-7.67 2.37-2.79 2.38-2.79 5.96 0 3.44 2.92 5.64 2.93 2.21 11.88 3.93 13.77 2.75 20.45 8.09 6.68 5.33 6.68 14.7 0 10.05-8.61 16.42t-22.72 6.37q-14.87 0-23.51-7.54t-8.23-17.18l.14-.41h18.38q.21 5.99 3.93 8.67 3.71 2.69 9.7 2.69 5.58 0 8.51-2.21 2.92-2.2 2.92-5.99m36.22-72.22h20.1v18.25h12.53v14.11h-12.53v37.94q0 4.33 1.79 6.19t4.82 1.86q1.58 0 2.72-.17 1.13-.17 2.65-.59l1.72 14.53q-3.03 1.03-5.92 1.55t-6.27.52q-10.39 0-16-5.72-5.61-5.71-5.61-18.11v-38h-10.88v-14.11h10.88zm103.54-7.5v100.24h-20.1v-100.24zm18.38 25.75h18.66l.83 9.84q3.58-5.37 8.98-8.29 5.41-2.93 12.5-2.93 7.16 0 12.25 3.17 5.1 3.16 7.71 9.57 3.45-5.99 8.96-9.37 5.5-3.37 12.94-3.37 11.01 0 17.38 7.61t6.37 23.16v45.1h-20.1v-45.16q0-8.47-2.76-11.78-2.75-3.3-8.19-3.3-4.27 0-7.4 1.89t-4.99 5.27q0 1.31.07 2.24t.07 1.89v48.95h-20.04v-45.16q0-8.27-2.75-11.67-2.76-3.41-8.26-3.41-4.07 0-7.13 1.55t-5.06 4.37v54.32h-20.04zm185.82 74.49h-20.1q-1.1-2.55-1.89-5.37t-1.14-5.78q-3.1 5.44-8.16 9.02t-12.08 3.58q-11.7 0-18.04-6.03-6.33-6.02-6.33-16.42 0-10.95 8.43-16.97 8.44-6.02 24.62-6.02h11.22v-5.92q0-5.37-2.83-8.34-2.82-2.96-8.33-2.96-4.88 0-7.53 2.38-2.66 2.37-2.66 6.57l-19.41-.06-.07-.42q-.48-9.43 8.19-16.28 8.68-6.85 22.79-6.85 13.36 0 21.69 6.78t8.33 19.31v30.78q0 5.23.79 9.84.79 4.62 2.51 9.16m-38.48-13.43q5.3 0 9.43-2.61 4.13-2.62 5.58-6.06v-10.53h-11.22q-6.41 0-9.71 3.2-3.31 3.2-3.31 7.74 0 3.72 2.48 5.99t6.75 2.27m47.3-21.75v-1.45q0-17.62 7.67-28.43 7.68-10.81 21.52-10.81 6.26 0 11.01 2.82 4.75 2.83 8.13 8.06l1.58-9.5h17.35v74.15q0 14.52-9.53 22.47-9.54 7.96-26.54 7.96-5.65 0-11.98-1.55-6.34-1.55-11.71-4.24l3.72-15.01q4.61 2.21 9.4 3.34 4.78 1.14 10.43 1.14 8.26 0 12.15-3.44 3.89-3.45 3.89-10.74v-6.75q-3.31 4.2-7.78 6.4-4.48 2.21-10.26 2.21-13.7 0-21.38-10.09-7.67-10.09-7.67-26.54m20.1-1.45v1.45q0 9.78 3.31 15.39 3.3 5.61 10.74 5.61 4.61 0 7.81-1.69t5.13-4.92v-32.36q-1.93-3.37-5.13-5.23t-7.68-1.86q-7.36 0-10.77 6.54t-3.41 17.07m95.56 38.08q-16.11 0-25.75-10.33t-9.64-26.23v-2.76q0-16.59 9.13-27.33 9.12-10.74 24.47-10.67 15.08 0 23.41 9.09t8.33 24.58v10.94h-44.48l-.13.42q.55 7.36 4.92 12.11t11.88 4.75q6.67 0 11.08-1.34t9.64-4.23l5.44 12.39q-4.55 3.72-11.91 6.16-7.37 2.45-16.39 2.45m-1.79-61.83q-5.58 0-8.81 4.27-3.24 4.27-3.99 11.22l.2.35h24.65v-1.79q0-6.41-3-10.23-2.99-3.82-9.05-3.82"/></svg>